<?xml version="1.0" standalone="yes"?>

<svg version="1.1" viewBox="0.0 0.0 960.0 720.0" fill="none" stroke="none" stroke-linecap="square" stroke-miterlimit="10" xmlns="http://www.w3.org/2000/svg" xmlns:xlink="http://www.w3.org/1999/xlink"><clipPath id="p.0"><path d="m0 0l960.0 0l0 720.0l-960.0 0l0 -720.0z" clip-rule="nonzero"></path></clipPath><g clip-path="url(#p.0)"><path fill="#000000" fill-opacity="0.0" d="m0 0l960.0 0l0 720.0l-960.0 0z" fill-rule="nonzero"></path><path fill="#cfe2f3" d="m51.0 36.06352l89.95276 0l0 133.07086l-89.95276 0z" fill-rule="nonzero"></path><path stroke="#000000" stroke-width="2.0" stroke-linejoin="round" stroke-linecap="butt" d="m51.0 36.06352l89.95276 0l0 133.07086l-89.95276 0z" fill-rule="nonzero"></path><path fill="#000000" fill-opacity="0.0" d="m51.855167 36.06352l325.82678 0l0 39.181103l-325.82678 0z" fill-rule="nonzero"></path><path fill="#000000" d="m67.12079 49.34289q0 2.359375 -1.15625 4.609375q-1.140625 2.171875 -3.0156212 3.625q-0.234375 0.171875 -0.28125 0.421875q-0.015625 0.203125 0.125 0.359375q0.140625 0.15625 0.328125 0.1875q0.21875 0.015625 0.40625 -0.125q1.3437462 -1.09375 2.3593712 -2.4375q0.796875 -1.078125 1.359375 -2.21875q1.125 0.828125 2.140625 1.8125q1.140625 1.078125 2.125 2.328125q0.15625 0.203125 0.421875 0.21875q0.203125 0 0.390625 -0.15625q0.171875 -0.15625 0.1875 -0.390625q0.015625 -0.25 -0.171875 -0.5q-1.171875 -1.3125 -2.296875 -2.3125q-1.15625 -1.046875 -2.4375 -1.90625q0.3125 -0.859375 0.46875 -1.765625q0.171875 -0.875 0.171875 -1.75q0 -0.25 -0.1875 -0.40625q-0.15625 -0.125 -0.375 -0.125q-0.234375 0 -0.390625 0.125q-0.171875 0.15625 -0.171875 0.40625zm9.203125 9.796875l0 -10.234375q0 -0.25 -0.171875 -0.375q-0.15625 -0.125 -0.375 -0.125q-0.25 0 -0.390625 0.125q-0.171875 0.140625 -0.171875 0.390625l0 3.40625l-4.796875 0q-0.28125 0 -0.4375 0.15625q-0.125 0.125 -0.125 0.328125q0 0.1875 0.140625 0.3125q0.171875 0.171875 0.453125 0.171875l4.765625 0l0 5.84375q0 0.28125 0.171875 0.453125q0.140625 0.140625 0.390625 0.140625q0.21875 0 0.375 -0.140625q0.171875 -0.171875 0.171875 -0.453125zm-10.8125 0.21875q0 -0.296875 -0.1875 -0.453125q-0.140625 -0.15625 -0.375 -0.15625q-0.234375 0 -0.375 0.15625q-0.171875 0.15625 -0.171875 0.453125l0 2.46875q0 0.828125 0.515625 1.25q0.484375 0.40625 1.3125 0.40625l10.1875 0q0.46875 0 0.46875 -0.484375q0 -0.46875 -0.46875 -0.46875l-10.0 0q-0.53125 0 -0.71875 -0.15625q-0.1875 -0.1875 -0.1875 -0.6875l0 -2.328125zm23.3125 -10.390625q0 2.359375 -1.9375 3.921875q-1.71875 1.390625 -4.0625 1.578125q-0.296875 0.015625 -0.421875 0.1875q-0.140625 0.15625 -0.109375 0.375q0.03125 0.203125 0.203125 0.328125q0.1875 0.140625 0.453125 0.109375q2.3125 -0.3125 4.125 -1.546875q1.71875 -1.15625 2.28125 -2.640625q0.578125 1.453125 2.296875 2.640625q1.796875 1.234375 4.0 1.546875q0.3125 0.03125 0.53125 -0.109375q0.1875 -0.125 0.21875 -0.328125q0.0625 -0.234375 -0.0625 -0.390625q-0.15625 -0.1875 -0.4375 -0.203125q-2.375 -0.25 -4.0625 -1.578125q-1.953125 -1.546875 -1.953125 -3.859375q0 -0.296875 -0.171875 -0.46875q-0.15625 -0.15625 -0.359375 -0.15625q-0.21875 0 -0.375 0.15625q-0.15625 0.171875 -0.15625 0.4375zm7.765625 8.484375l-14.4375 0q-0.515625 0 -0.53125 0.46875q-0.015625 0.484375 0.46875 0.484375l6.734375 0l0 4.96875q0 0.265625 0.15625 0.421875q0.15625 0.140625 0.375 0.140625q0.203125 0 0.359375 -0.15625q0.171875 -0.171875 0.171875 -0.421875l0 -4.953125l6.75 0q0.46875 0 0.46875 -0.484375q-0.015625 -0.46875 -0.515625 -0.46875z" fill-rule="nonzero"></path><path fill="#000000" fill-opacity="0.0" d="m140.93939 68.72231l-89.92125 0" fill-rule="nonzero"></path><path stroke="#000000" stroke-width="2.0" stroke-linejoin="round" stroke-linecap="butt" d="m140.93939 68.72231l-89.92125 0" fill-rule="nonzero"></path><path fill="#000000" fill-opacity="0.0" d="m51.855167 81.785835l107.74803 0l0 133.07086l-107.74803 0z" fill-rule="nonzero"></path><path fill="#000000" d="m62.620792 108.70583l0 -13.59375l1.8124962 0l0 13.59375l-1.8124962 0zm4.886425 0l0 -13.59375l4.6875 0q1.578125 0 2.421875 0.1875q1.15625 0.265625 1.984375 0.96875q1.078125 0.921875 1.609375 2.34375q0.53125 1.40625 0.53125 3.21875q0 1.546875 -0.359375 2.75q-0.359375 1.1875 -0.921875 1.984375q-0.5625 0.78125 -1.234375 1.234375q-0.671875 0.4375 -1.625 0.671875q-0.953125 0.234375 -2.1875 0.234375l-4.90625 0zm1.796875 -1.609375l2.90625 0q1.34375 0 2.109375 -0.25q0.765625 -0.25 1.21875 -0.703125q0.640625 -0.640625 1.0 -1.71875q0.359375 -1.078125 0.359375 -2.625q0 -2.125 -0.703125 -3.265625q-0.703125 -1.15625 -1.703125 -1.546875q-0.71875 -0.28125 -2.328125 -0.28125l-2.859375 0l0 10.390625z" fill-rule="nonzero"></path><path fill="#000000" d="m62.308292 130.70583l0 -13.593742l1.8437462 0l7.140625 10.671875l0 -10.671875l1.71875 0l0 13.593742l-1.84375 0l-7.140625 -10.687492l0 10.687492l-1.7187462 0zm11.988567 0l5.234375 -13.593742l1.9375 0l5.5625 13.593742l-2.046875 0l-1.59375 -4.1249924l-5.6875 0l-1.484375 4.1249924l-1.921875 0zm3.921875 -5.5781174l4.609375 0l-1.40625 -3.78125q-0.65625 -1.703125 -0.96875 -2.8125q-0.265625 1.3125 -0.734375 2.59375l-1.5 4.0zm9.959198 5.5781174l0 -13.593742l2.71875 0l3.21875 9.625q0.4375 1.3437424 0.640625 2.0156174q0.234375 -0.75 0.734375 -2.1874924l3.25 -9.453125l2.421875 0l0 13.593742l-1.734375 0l0 -11.390617l-3.953125 11.390617l-1.625 0l-3.9375 -11.578117l0 11.578117l-1.734375 0zm15.634552 0l0 -13.593742l9.84375 0l0 1.59375l-8.046875 0l0 4.171875l7.53125 0l0 1.59375l-7.53125 0l0 4.6249924l8.359375 0l0 1.609375l-10.15625 0z" fill-rule="nonzero"></path><path fill="#000000" d="m65.77704 152.70583l0 -12.0l-4.468746 0l0 -1.59375l10.765621 0l0 1.59375l-4.5 0l0 12.0l-1.796875 0zm7.974106 0l0 -13.59375l9.84375 0l0 1.59375l-8.046875 0l0 4.171875l7.53125 0l0 1.59375l-7.53125 0l0 4.625l8.359375 0l0 1.609375l-10.15625 0zm10.912323 0l5.234375 -13.59375l1.9375 0l5.5625 13.59375l-2.046875 0l-1.59375 -4.125l-5.6875 0l-1.484375 4.125l-1.921875 0zm3.921875 -5.578125l4.609375 0l-1.40625 -3.78125q-0.65625 -1.703125 -0.96875 -2.8125q-0.265625 1.3125 -0.734375 2.59375l-1.5 4.0zm9.959198 5.578125l0 -13.59375l2.71875 0l3.21875 9.625q0.4375 1.34375 0.640625 2.015625q0.234375 -0.75 0.734375 -2.1875l3.25 -9.453125l2.421875 0l0 13.59375l-1.734375 0l0 -11.390625l-3.953125 11.390625l-1.625 0l-3.9375 -11.578125l0 11.578125l-1.734375 0z" fill-rule="nonzero"></path><path fill="#cfe2f3" d="m215.60605 36.05066l116.25198 0l0 133.07088l-116.25198 0z" fill-rule="nonzero"></path><path stroke="#000000" stroke-width="2.0" stroke-linejoin="round" stroke-linecap="butt" d="m215.60605 36.05066l116.25198 0l0 133.07088l-116.25198 0z" fill-rule="nonzero"></path><path fill="#000000" fill-opacity="0.0" d="m331.84848 68.72231l-116.25197 0" fill-rule="nonzero"></path><path stroke="#000000" stroke-width="2.0" stroke-linejoin="round" stroke-linecap="butt" d="m331.84848 68.72231l-116.25197 0" fill-rule="nonzero"></path><path fill="#000000" fill-opacity="0.0" d="m215.5994 36.06352l325.82675 0l0 39.181103l-325.82675 0z" fill-rule="nonzero"></path><path fill="#000000" fill-opacity="0.0" d="m215.60605 36.06352l325.82675 0l0 39.181103l-325.82675 0z" fill-rule="nonzero"></path><path fill="#000000" d="m235.12167 48.96789l-6.078125 0q-0.90625 0 -1.40625 0.53125q-0.453125 0.484375 -0.453125 1.28125l0 9.84375q0 0.8125 0.46875 1.34375q0.5 0.546875 1.40625 0.546875q2.15625 0 4.4375 -0.328125q2.328125 -0.328125 3.890625 -0.875q0.25 -0.09375 0.3125 -0.28125q0.09375 -0.1875 0 -0.359375q-0.0625 -0.1875 -0.25 -0.265625q-0.21875 -0.078125 -0.484375 0.03125q-1.5 0.546875 -3.640625 0.84375q-2.03125 0.296875 -4.234375 0.296875q-0.46875 0 -0.65625 -0.296875q-0.15625 -0.25 -0.15625 -0.859375l0 -4.890625l6.53125 0q0.5625 0 0.5625 -0.484375q0 -0.46875 -0.5625 -0.46875l-6.53125 0l0 -3.796875q0 -0.421875 0.171875 -0.640625q0.203125 -0.21875 0.609375 -0.21875l6.09375 0q0.25 0 0.421875 -0.15625q0.140625 -0.140625 0.140625 -0.328125q0 -0.1875 -0.140625 -0.328125q-0.171875 -0.140625 -0.453125 -0.140625zm4.421875 6.734375l0 -6.78125q0 -0.25 -0.1875 -0.390625q-0.140625 -0.109375 -0.375 -0.109375q-0.21875 0 -0.359375 0.109375q-0.171875 0.140625 -0.171875 0.390625l0 14.46875q0 0.25 0.171875 0.390625q0.140625 0.15625 0.359375 0.15625q0.234375 0 0.375 -0.15625q0.1875 -0.140625 0.1875 -0.390625l0 -6.765625l2.0625 0q0.4375 0 0.4375 -0.46875q0 -0.453125 -0.4375 -0.453125l-2.0625 0zm15.578125 -6.734375l-8.421875 0q-0.515625 0 -0.515625 0.46875q-0.015625 0.484375 0.5 0.484375l3.671875 0l0 3.03125q0 2.890625 -1.234375 5.28125q-1.1875 2.34375 -3.0625 3.296875q-0.25 0.109375 -0.3125 0.34375q-0.0625 0.203125 0.046875 0.40625q0.09375 0.1875 0.28125 0.25q0.203125 0.09375 0.421875 -0.015625q1.5625 -0.78125 2.8125 -2.609375q1.21875 -1.796875 1.59375 -3.75q0.3125 1.890625 1.578125 3.75q1.25 1.8125 2.734375 2.609375q0.28125 0.15625 0.53125 0.078125q0.21875 -0.0625 0.328125 -0.265625q0.09375 -0.171875 0.03125 -0.40625q-0.046875 -0.21875 -0.296875 -0.34375q-1.9375 -1.078125 -3.125 -3.375q-1.234375 -2.375 -1.234375 -5.28125l0 -3.0l3.671875 0q0.46875 0 0.46875 -0.484375q0 -0.46875 -0.46875 -0.46875zm3.421875 6.734375l0 -6.78125q0 -0.25 -0.1875 -0.390625q-0.140625 -0.109375 -0.375 -0.109375q-0.21875 0 -0.359375 0.109375q-0.171875 0.140625 -0.171875 0.390625l0 14.46875q0 0.25 0.171875 0.390625q0.140625 0.15625 0.359375 0.15625q0.234375 0 0.375 -0.15625q0.1875 -0.140625 0.1875 -0.390625l0 -6.765625l2.0625 0q0.4375 0 0.4375 -0.46875q0 -0.453125 -0.4375 -0.453125l-2.0625 0zm12.3125 -6.734375l-5.484375 0q-0.515625 0 -0.5 0.46875q0 0.484375 0.515625 0.484375l5.515625 0q0.421875 0 0.671875 0.203125q0.21875 0.203125 0.21875 0.59375l0 2.171875q0 3.921875 -1.859375 6.0625q-1.703125 1.984375 -4.890625 2.328125q-0.53125 0.03125 -0.484375 0.5q0.03125 0.484375 0.546875 0.4375q3.421875 -0.21875 5.5 -2.53125q2.25 -2.5 2.25 -6.765625l0 -2.1875q0 -0.8125 -0.53125 -1.28125q-0.53125 -0.484375 -1.46875 -0.484375zm7.21875 14.390625l0 -14.4375q0 -0.25 -0.171875 -0.390625q-0.15625 -0.109375 -0.375 -0.109375q-0.25 0 -0.390625 0.109375q-0.171875 0.140625 -0.171875 0.390625l0 14.4375q0 0.25 0.171875 0.421875q0.140625 0.15625 0.390625 0.15625q0.21875 0 0.375 -0.15625q0.171875 -0.171875 0.171875 -0.421875zm17.703125 -14.734375l-10.375 0q-0.546875 0 -0.5625 0.46875q0 0.46875 0.546875 0.46875l10.078125 0q0.40625 0 0.59375 0.125q0.203125 0.125 0.203125 0.40625l0 0.4375q0 0.21875 -0.21875 0.359375q-0.21875 0.140625 -0.609375 0.140625l-9.09375 0q-0.703125 0 -1.109375 0.3125q-0.390625 0.34375 -0.390625 0.9375l0 0.84375q0 0.625 0.359375 0.9375q0.375 0.3125 1.140625 0.3125l10.71875 0q0.25 0 0.375 -0.15625q0.125 -0.140625 0.125 -0.328125q0 -0.1875 -0.140625 -0.328125q-0.15625 -0.140625 -0.40625 -0.140625l-10.390625 0q-0.390625 0 -0.546875 -0.140625q-0.125 -0.109375 -0.125 -0.328125l0 -0.515625q0 -0.21875 0.125 -0.328125q0.171875 -0.125 0.59375 -0.125l9.25 0q0.703125 0 1.046875 -0.28125q0.40625 -0.296875 0.40625 -0.921875l0 -1.03125q0 -0.53125 -0.4375 -0.84375q-0.40625 -0.28125 -1.15625 -0.28125zm-4.171875 5.9375q0 -0.421875 -0.53125 -0.421875q-0.546875 -0.03125 -0.546875 0.359375l0 1.53125l-6.625 0q-0.53125 0 -0.546875 0.4375q-0.046875 0.46875 0.453125 0.46875l14.53125 0q0.515625 0 0.515625 -0.46875q-0.015625 -0.4375 -0.546875 -0.4375l-6.703125 0l0 -1.46875zm3.9375 4.390625l-10.40625 0q-0.53125 0 -0.5 0.46875q0 0.484375 0.5 0.484375l10.34375 0q0.4375 0 0.609375 0.171875q0.171875 0.140625 0.171875 0.5l0 2.78125q0 0.28125 0.171875 0.4375q0.140625 0.15625 0.390625 0.15625q0.21875 0 0.375 -0.15625q0.171875 -0.15625 0.171875 -0.4375l0 -2.828125q0 -0.78125 -0.46875 -1.1875q-0.46875 -0.390625 -1.359375 -0.390625z" fill-rule="nonzero"></path><path fill="#000000" fill-opacity="0.0" d="m216.45454 68.72231l114.55116 0l0 99.59055l-114.55116 0z" fill-rule="nonzero"></path><path fill="#000000" d="m234.31392 81.28544l-5.125 0q-0.765625 0 -1.1875 0.4375q-0.375 0.40625 -0.375 1.078125l0 8.296875q0 0.6875 0.390625 1.125q0.421875 0.46875 1.1875 0.46875q1.8125 0 3.734375 -0.28125q1.96875 -0.28125 3.28125 -0.734375q0.203125 -0.078125 0.265625 -0.234375q0.078125 -0.15625 0 -0.3125q-0.0625 -0.15625 -0.21875 -0.21875q-0.1875 -0.0625 -0.40625 0.03125q-1.265625 0.453125 -3.0625 0.703125q-1.71875 0.25 -3.5625 0.25q-0.40625 0 -0.5625 -0.25q-0.125 -0.203125 -0.125 -0.71875l0 -4.125l5.5 0q0.46875 0 0.46875 -0.40625q0 -0.390625 -0.46875 -0.390625l-5.5 0l0 -3.203125q0 -0.34375 0.140625 -0.53125q0.171875 -0.1875 0.515625 -0.1875l5.125 0q0.21875 0 0.359375 -0.125q0.125 -0.125 0.125 -0.28125q0 -0.15625 -0.125 -0.28125q-0.140625 -0.109375 -0.375 -0.109375zm3.71875 5.671875l0 -5.71875q0 -0.203125 -0.15625 -0.328125q-0.125 -0.09375 -0.3125 -0.09375q-0.1875 0 -0.3125 0.09375q-0.140625 0.125 -0.140625 0.328125l0 12.1875q0 0.203125 0.140625 0.328125q0.125 0.125 0.3125 0.125q0.1875 0 0.3125 -0.125q0.15625 -0.125 0.15625 -0.328125l0 -5.703125l1.734375 0q0.375 0 0.375 -0.390625q0 -0.375 -0.375 -0.375l-1.734375 0zm10.96875 -5.671875q0 1.984375 -1.625 3.296875q-1.453125 1.171875 -3.421875 1.328125q-0.25 0.015625 -0.359375 0.15625q-0.109375 0.140625 -0.09375 0.3125q0.03125 0.171875 0.171875 0.28125q0.15625 0.125 0.390625 0.09375q1.9375 -0.265625 3.46875 -1.296875q1.453125 -0.984375 1.921875 -2.234375q0.484375 1.234375 1.9375 2.234375q1.515625 1.03125 3.359375 1.296875q0.265625 0.03125 0.453125 -0.09375q0.15625 -0.109375 0.1875 -0.28125q0.046875 -0.1875 -0.0625 -0.328125q-0.125 -0.15625 -0.359375 -0.171875q-2.0 -0.203125 -3.421875 -1.328125q-1.640625 -1.296875 -1.640625 -3.25q0 -0.25 -0.15625 -0.390625q-0.125 -0.125 -0.296875 -0.125q-0.1875 0 -0.3125 0.125q-0.140625 0.140625 -0.140625 0.375zm6.546875 7.140625l-12.15625 0q-0.4375 0 -0.453125 0.390625q-0.015625 0.40625 0.390625 0.40625l5.671875 0l0 4.1875q0 0.21875 0.140625 0.359375q0.125 0.109375 0.3125 0.109375q0.171875 0 0.296875 -0.125q0.15625 -0.140625 0.15625 -0.359375l0 -4.171875l5.671875 0q0.40625 0 0.40625 -0.40625q-0.015625 -0.390625 -0.4375 -0.390625z" fill-rule="nonzero"></path><path fill="#000000" d="m231.03267 100.20731q-1.703125 0 -2.703125 1.171875q-0.890625 1.046875 -0.890625 2.578125q0 1.515625 0.890625 2.578125q1.0 1.171875 2.703125 1.171875q1.671875 0 2.65625 -1.171875q0.890625 -1.046875 0.890625 -2.578125q0 -1.53125 -0.890625 -2.578125q-0.984375 -1.171875 -2.65625 -1.171875zm0 0.796875q1.265625 0 1.984375 0.921875q0.65625 0.8125 0.65625 2.03125q0 1.21875 -0.65625 2.03125q-0.71875 0.921875 -1.984375 0.921875q-1.296875 0 -2.015625 -0.921875q-0.640625 -0.8125 -0.640625 -2.03125q0 -1.21875 0.640625 -2.03125q0.734375 -0.921875 2.015625 -0.921875zm7.0 3.515625l0 -4.296875q0 -0.421875 -0.46875 -0.421875q-0.453125 0 -0.453125 0.421875l0 8.65625q0 0.21875 0.140625 0.34375q0.125 0.125 0.3125 0.125q0.1875 0 0.3125 -0.125q0.15625 -0.125 0.15625 -0.34375l0 -3.5625l1.703125 0q0.40625 0 0.40625 -0.40625q0 -0.390625 -0.40625 -0.390625l-1.703125 0zm-8.71875 4.5q0 -0.265625 -0.15625 -0.40625q-0.125 -0.140625 -0.3125 -0.140625q-0.1875 0 -0.3125 0.140625q-0.140625 0.140625 -0.140625 0.40625l0 2.0625q0 0.65625 0.390625 1.03125q0.421875 0.390625 1.15625 0.390625l8.09375 0q0.40625 0 0.40625 -0.40625q0 -0.390625 -0.40625 -0.390625l-7.96875 0q-0.4375 0 -0.59375 -0.140625q-0.15625 -0.15625 -0.15625 -0.578125l0 -1.96875zm21.0 -8.734375l-5.125 0q-0.765625 0 -1.1875 0.4375q-0.375 0.40625 -0.375 1.078125l0 8.296875q0 0.6875 0.390625 1.125q0.421875 0.46875 1.1875 0.46875q1.8125 0 3.734375 -0.28125q1.96875 -0.28125 3.28125 -0.734375q0.203125 -0.078125 0.265625 -0.234375q0.078125 -0.15625 0 -0.3125q-0.0625 -0.15625 -0.21875 -0.21875q-0.1875 -0.0625 -0.40625 0.03125q-1.265625 0.453125 -3.0625 0.703125q-1.71875 0.25 -3.5625 0.25q-0.40625 0 -0.5625 -0.25q-0.125 -0.203125 -0.125 -0.71875l0 -4.125l5.5 0q0.46875 0 0.46875 -0.40625q0 -0.390625 -0.46875 -0.390625l-5.5 0l0 -3.203125q0 -0.34375 0.140625 -0.53125q0.171875 -0.1875 0.515625 -0.1875l5.125 0q0.21875 0 0.359375 -0.125q0.125 -0.125 0.125 -0.28125q0 -0.15625 -0.125 -0.28125q-0.140625 -0.109375 -0.375 -0.109375zm3.71875 5.671875l0 -5.71875q0 -0.203125 -0.15625 -0.328125q-0.125 -0.09375 -0.3125 -0.09375q-0.1875 0 -0.3125 0.09375q-0.140625 0.125 -0.140625 0.328125l0 12.1875q0 0.203125 0.140625 0.328125q0.125 0.125 0.3125 0.125q0.1875 0 0.3125 -0.125q0.15625 -0.125 0.15625 -0.328125l0 -5.703125l1.734375 0q0.37498474 0 0.37498474 -0.390625q0 -0.375 -0.37498474 -0.375l-1.734375 0z" fill-rule="nonzero"></path><path fill="#000000" d="m234.31392 119.28544l-5.125 0q-0.765625 0 -1.1875 0.4375q-0.375 0.40625 -0.375 1.078125l0 8.296867q0 0.6875 0.390625 1.125q0.421875 0.46875 1.1875 0.46875q1.8125 0 3.734375 -0.28125q1.96875 -0.28125 3.28125 -0.734375q0.203125 -0.078125 0.265625 -0.234375q0.078125 -0.15625 0 -0.3125q-0.0625 -0.15625 -0.21875 -0.21875q-0.1875 -0.0625 -0.40625 0.03125q-1.265625 0.453125 -3.0625 0.703125q-1.71875 0.25 -3.5625 0.25q-0.40625 0 -0.5625 -0.25q-0.125 -0.203125 -0.125 -0.71875l0 -4.1249924l5.5 0q0.46875 0 0.46875 -0.40625q0 -0.390625 -0.46875 -0.390625l-5.5 0l0 -3.203125q0 -0.34375 0.140625 -0.53125q0.171875 -0.1875 0.515625 -0.1875l5.125 0q0.21875 0 0.359375 -0.125q0.125 -0.125 0.125 -0.28125q0 -0.15625 -0.125 -0.28125q-0.140625 -0.109375 -0.375 -0.109375zm3.71875 5.671875l0 -5.71875q0 -0.203125 -0.15625 -0.328125q-0.125 -0.09375 -0.3125 -0.09375q-0.1875 0 -0.3125 0.09375q-0.140625 0.125 -0.140625 0.328125l0 12.187492q0 0.203125 0.140625 0.328125q0.125 0.125 0.3125 0.125q0.1875 0 0.3125 -0.125q0.15625 -0.125 0.15625 -0.328125l0 -5.7031174l1.734375 0q0.375 0 0.375 -0.390625q0 -0.375 -0.375 -0.375l-1.734375 0zm11.421875 -6.0625q-2.796875 0 -4.1875 0.59375q-1.265625 0.546875 -1.265625 1.546875q0 0.984375 1.265625 1.53125q1.390625 0.609375 4.1875 0.609375q2.78125 0 4.171875 -0.609375q1.28125 -0.546875 1.28125 -1.53125q0 -1.0 -1.28125 -1.546875q-1.390625 -0.59375 -4.171875 -0.59375zm0 0.796875q2.359375 0 3.484375 0.34375q1.0625 0.328125 1.0625 1.0q0 0.640625 -1.0625 0.96875q-1.109375 0.359375 -3.484375 0.359375q-2.390625 0 -3.5 -0.359375q-1.03125 -0.328125 -1.03125 -0.96875q0 -0.671875 1.03125 -1.0q1.125 -0.34375 3.5 -0.34375zm6.109375 4.703125l-12.171875 0q-0.453125 0 -0.46875 0.390625q-0.03125 0.40625 0.390625 0.40625l2.9375 0l0 0.453125q0 0.34375 -0.078125 0.5625q-0.09375 0.203125 -0.3125 0.421875q-0.15625 0.140625 -0.140625 0.3125q0.03125 0.171875 0.171875 0.296875q0.140625 0.125 0.3125 0.140625q0.1875 0.015625 0.328125 -0.125q0.296875 -0.328125 0.46875 -0.71875q0.1875 -0.4375 0.1875 -0.890625l0 -0.453125l4.984375 0l0 1.65625q0 0.21875 0.140625 0.359375q0.125 0.109375 0.3125 0.109375q0.1875 0 0.3125 -0.125q0.15625 -0.140625 0.15625 -0.359375l0 -1.640625l2.5 0q0.390625 0 0.390625 -0.40625q-0.015625 -0.390625 -0.421875 -0.390625zm-2.265625 2.546875l-8.671875 0q-0.46875 0 -0.484375 0.390625q0 0.40625 0.46875 0.40625l8.578125 0q0.328125 0 0.46875 0.109375q0.140625 0.109375 0.140625 0.37499237l0 0.3125q0 0.203125 -0.15625 0.296875q-0.140625 0.078125 -0.421875 0.078125l-7.84375 0q-0.578125 0 -0.890625 0.3125q-0.3125 0.3125 -0.3125 0.828125l0 0.59375q0 0.484375 0.296875 0.765625q0.296875 0.296875 0.828125 0.296875l9.1875 0q0.203125 0 0.3125 -0.125q0.109375 -0.125 0.109375 -0.28125q-0.015625 -0.15625 -0.125 -0.28125q-0.140625 -0.109375 -0.359375 -0.109375l-8.78125 0q-0.28125 0 -0.40625 -0.09375q-0.125 -0.09375 -0.125 -0.328125l0 -0.28125q0 -0.25 0.109375 -0.375q0.125 -0.125 0.4375 -0.125l7.921875 0q0.5 0 0.828125 -0.3125q0.328125 -0.3125 0.328125 -0.765625l0 -0.6562424q0 -0.46875 -0.4375 -0.765625q-0.40625 -0.265625 -1.0 -0.265625z" fill-rule="nonzero"></path><path fill="#000000" d="m232.18892 147.41043l1.453125 0.171875q-0.34375 1.28125 -1.28125 1.984375q-0.921875 0.703125 -2.359375 0.703125q-1.828125 0 -2.890625 -1.125q-1.0625 -1.125 -1.0625 -3.140625q0 -2.09375 1.078125 -3.25q1.078125 -1.15625 2.796875 -1.15625q1.65625 0 2.703125 1.140625q1.0625 1.125 1.0625 3.171875q0 0.125 0 0.375l-6.1875 0q0.078125 1.375 0.765625 2.109375q0.703125 0.71875 1.734375 0.71875q0.78125 0 1.328125 -0.40625q0.546875 -0.40625 0.859375 -1.296875zm-4.609375 -2.28125l4.625 0q-0.09375 -1.046875 -0.53125 -1.5625q-0.671875 -0.8125 -1.734375 -0.8125q-0.96875 0 -1.640625 0.65625q-0.65625 0.640625 -0.71875 1.71875zm10.8984375 3.6875l0.203125 1.25q-0.59375 0.125 -1.0625 0.125q-0.765625 0 -1.1875 -0.234375q-0.421875 -0.25 -0.59375 -0.640625q-0.171875 -0.40625 -0.171875 -1.671875l0 -4.765625l-1.03125 0l0 -1.09375l1.03125 0l0 -2.0625l1.40625 -0.84375l0 2.90625l1.40625 0l0 1.09375l-1.40625 0l0 4.84375q0 0.609375 0.0625 0.78125q0.078125 0.171875 0.25 0.28125q0.171875 0.09375 0.484375 0.09375q0.234375 0 0.609375 -0.0625zm6.7890625 -1.78125l1.390625 0.1875q-0.234375 1.421875 -1.171875 2.234375q-0.921875 0.8125 -2.28125 0.8125q-1.703125 0 -2.75 -1.109375q-1.03125 -1.125 -1.03125 -3.203125q0 -1.34375 0.4375 -2.34375q0.453125 -1.015625 1.359375 -1.515625q0.921875 -0.5 1.984375 -0.5q1.359375 0 2.21875 0.6875q0.859375 0.671875 1.09375 1.9375l-1.359375 0.203125q-0.203125 -0.828125 -0.703125 -1.25q-0.484375 -0.421875 -1.1875 -0.421875q-1.0625 0 -1.734375 0.765625q-0.65625 0.75 -0.65625 2.40625q0 1.671875 0.640625 2.4375q0.640625 0.75 1.671875 0.75q0.828125 0 1.375 -0.5q0.5625 -0.515625 0.703125 -1.578125z" fill-rule="nonzero"></path><path fill="#000000" fill-opacity="0.0" d="m397.1818 36.46211l325.82675 0l0 39.181103l-325.82675 0z" fill-rule="nonzero"></path><path fill="#000000" d="m417.08804 48.58523l-6.078125 0q-1.078125 0 -1.6875 0.65625q-0.5625 0.59375 -0.5625 1.546875l0 9.84375q0 0.96875 0.5625 1.609375q0.625 0.671875 1.703125 0.671875q2.1875 0 4.5 -0.328125q2.359375 -0.34375 3.96875 -0.890625q0.421875 -0.171875 0.53125 -0.5q0.171875 -0.34375 0 -0.671875q-0.109375 -0.3125 -0.46875 -0.46875q-0.375 -0.140625 -0.765625 0.03125q-1.453125 0.53125 -3.5625 0.8125q-2.0 0.296875 -4.171875 0.296875q-0.25 0 -0.328125 -0.109375q-0.09375 -0.15625 -0.09375 -0.65625l0 -4.5l6.140625 0q0.953125 0 0.953125 -0.875q0 -0.859375 -0.953125 -0.859375l-6.140625 0l0 -3.40625q0 -0.296875 0.078125 -0.390625q0.078125 -0.078125 0.3125 -0.078125l6.09375 0q0.40625 0 0.6875 -0.265625q0.265625 -0.265625 0.265625 -0.609375q0 -0.34375 -0.265625 -0.625q-0.296875 -0.234375 -0.71875 -0.234375zm4.8125 6.734375l0 -6.390625q0 -0.453125 -0.34375 -0.703125q-0.25 -0.1875 -0.609375 -0.1875q-0.34375 0 -0.609375 0.1875q-0.3125 0.265625 -0.3125 0.703125l0 14.46875q0 0.4375 0.296875 0.6718788q0.234375 0.265625 0.625 0.265625q0.40625 0 0.640625 -0.265625q0.3125 -0.21875381 0.3125 -0.6718788l0 -6.375l1.671875 0q0.828125 0 0.828125 -0.859375q0 -0.84375 -0.828125 -0.84375l-1.671875 0zm15.1875 -6.734375l-8.421875 0q-0.90625 0 -0.90625 0.859375q-0.03125 0.875 0.890625 0.875l3.28125 0l0 2.640625q0 2.796875 -1.1875 5.109375q-1.125 2.234375 -2.890625 3.109375q-0.40625 0.1875 -0.515625 0.59375q-0.109375 0.359375 0.078125 0.703125q0.15625 0.3125 0.484375 0.421875q0.34375 0.171875 0.734375 -0.03125q1.65625 -0.8125 2.96875 -2.734375q1.265625 -1.859375 1.265625 -3.96875q-0.0625 2.046875 1.25 3.96875q1.3125 1.890625 2.875 2.734375q0.421875 0.234375 0.828125 0.109375q0.375 -0.109375 0.5625 -0.453125q0.171875 -0.3125 0.0625 -0.6875q-0.078125 -0.390625 -0.484375 -0.59375q-1.828125 -1.015625 -2.96875 -3.21875q-1.1875 -2.28125 -1.1875 -5.09375l0 -2.609375l3.28125 0q0.859375 0 0.859375 -0.875q0 -0.859375 -0.859375 -0.859375zm3.8125 6.734375l0 -6.390625q0 -0.453125 -0.34375 -0.703125q-0.25 -0.1875 -0.609375 -0.1875q-0.34375 0 -0.609375 0.1875q-0.3125 0.265625 -0.3125 0.703125l0 14.46875q0 0.4375 0.296875 0.6718788q0.234375 0.265625 0.625 0.265625q0.40625 0 0.640625 -0.265625q0.3125 -0.21875381 0.3125 -0.6718788l0 -6.375l1.671875 0q0.828125 0 0.828125 -0.859375q0 -0.84375 -0.828125 -0.84375l-1.671875 0zm11.921875 -6.734375l-5.484375 0q-0.921875 0 -0.890625 0.859375q0 0.875 0.90625 0.875l5.515625 0q0.28125 0 0.421875 0.109375q0.078125 0.078125 0.078125 0.296875l0 2.171875q0 3.78125 -1.765625 5.8125q-1.609375 1.859375 -4.625 2.1875q-0.921875 0.0625 -0.84375 0.921875q0.0625 0.875 0.96875 0.796875q3.578125 -0.234375 5.765625 -2.65625q2.34375 -2.609375 2.34375 -7.03125l0 -2.1875q0 -0.984375 -0.65625 -1.578125q-0.640625 -0.578125 -1.734375 -0.578125zm7.609375 14.78125l0 -14.4375q0 -0.4375 -0.328125 -0.703125q-0.265625 -0.1875 -0.609375 -0.1875q-0.375 0 -0.640625 0.1875q-0.3125 0.265625 -0.3125 0.703125l0 14.4375q0 0.40625 0.28125 0.6875038q0.25 0.28125 0.671875 0.28125q0.375 0 0.65625 -0.265625q0.28125 -0.2968788 0.28125 -0.7031288zm17.3125 -15.125l-10.375 0q-0.921875 0 -0.953125 0.859375q0 0.859375 0.9375 0.859375l10.078125 0q0.28125 0 0.390625 0.0625q0.015625 0.015625 0.015625 0.078125l0 0.4375q0 0.015625 -0.046875 0.03125q-0.109375 0.078125 -0.390625 0.078125l-9.09375 0q-0.828125 0 -1.359375 0.40625q-0.53125 0.46875 -0.53125 1.234375l0 0.84375q0 0.796875 0.5 1.234375q0.484375 0.40625 1.390625 0.40625l10.71875 0q0.4375 0 0.671875 -0.296875q0.21875 -0.234375 0.21875 -0.578125q0 -0.34375 -0.265625 -0.609375q-0.265625 -0.25 -0.671875 -0.25l-10.390625 0q-0.234375 0 -0.28125 -0.046875q0 0.015625 0 -0.03125l0 -0.515625q0 -0.046875 -0.015625 -0.015625q0.046875 -0.046875 0.34375 -0.046875l9.25 0q0.84375 0 1.28125 -0.359375q0.5625 -0.40625 0.5625 -1.234375l0 -1.03125q0 -0.734375 -0.609375 -1.15625q-0.5 -0.359375 -1.375 -0.359375zm-3.78125 6.328125q0 -0.8125 -0.90625 -0.8125q-0.953125 -0.046875 -0.953125 0.75l0 1.140625l-6.234375 0q-0.90625 0 -0.9375 0.796875q-0.078125 0.890625 0.84375 0.890625l14.53125 0q0.90625 0 0.90625 -0.859375q-0.03125 -0.828125 -0.9375 -0.828125l-6.3125 0l0 -1.078125zm3.546875 4.0l-10.40625 0q-0.953125 0 -0.890625 0.875q0 0.859375 0.890625 0.859375l10.34375 0q0.28125 0 0.34375 0.078125q0.046875 0.03125 0.046875 0.203125l0 2.78125q0 0.453125 0.28125 0.7187538q0.25 0.265625 0.671875 0.265625q0.375 0 0.640625 -0.265625q0.296875 -0.2656288 0.296875 -0.7187538l0 -2.828125q0 -0.953125 -0.609375 -1.484375q-0.578125 -0.484375 -1.609375 -0.484375z" fill-rule="nonzero"></path><path fill="#000000" fill-opacity="0.0" d="m398.0303 69.1209l114.55118 0l0 99.59055l-114.55118 0z" fill-rule="nonzero"></path><path fill="#000000" d="m416.2178 81.02778l-5.125 0q-0.90625 0 -1.421875 0.546875q-0.46875 0.5 -0.46875 1.296875l0 8.296875q0 0.8125 0.46875 1.34375q0.53125 0.578125 1.4375 0.578125q1.84375 0 3.78125 -0.28125q2.0 -0.296875 3.34375 -0.75q0.34375 -0.140625 0.453125 -0.40625q0.140625 -0.296875 0 -0.59375q-0.109375 -0.265625 -0.40625 -0.390625q-0.3125 -0.09375 -0.640625 0.03125q-1.21875 0.453125 -2.984375 0.6875q-1.703125 0.25 -3.515625 0.25q-0.21875 0 -0.28125 -0.09375q-0.078125 -0.125 -0.078125 -0.546875l0 -3.796875l5.171875 0q0.796875 0 0.796875 -0.734375q0 -0.71875 -0.796875 -0.71875l-5.171875 0l0 -2.875q0 -0.234375 0.0625 -0.328125q0.0625 -0.0625 0.265625 -0.0625l5.125 0q0.34375 0 0.578125 -0.21875q0.234375 -0.21875 0.234375 -0.515625q0 -0.296875 -0.234375 -0.53125q-0.25 -0.1875 -0.59375 -0.1875zm4.046875 5.671875l0 -5.390625q0 -0.359375 -0.28125 -0.59375q-0.21875 -0.15625 -0.515625 -0.15625q-0.296875 0 -0.515625 0.171875q-0.265625 0.234375 -0.265625 0.578125l0 12.1875q0 0.34375 0.25 0.5625q0.203125 0.21875 0.53125 0.21875q0.328125 0 0.53125 -0.203125q0.265625 -0.21875 0.265625 -0.578125l0 -5.375l1.40625 0q0.703125 0 0.703125 -0.71875q0 -0.703125 -0.703125 -0.703125l-1.40625 0zm10.3125 -5.34375q0 1.828125 -1.5 3.046875q-1.375 1.109375 -3.234375 1.25q-0.40625 0.03125 -0.609375 0.28125q-0.1875 0.25 -0.15625 0.5625q0.0625 0.296875 0.296875 0.484375q0.265625 0.21875 0.640625 0.171875q2.015625 -0.265625 3.609375 -1.359375q1.53125 -1.03125 1.734375 -1.578125q0.21875 0.53125 1.75 1.578125q1.578125 1.09375 3.5 1.359375q0.390625 0.03125 0.6875 -0.15625q0.265625 -0.1875 0.328125 -0.484375q0.078125 -0.328125 -0.140625 -0.59375q-0.203125 -0.265625 -0.578125 -0.296875q-1.90625 -0.1875 -3.25 -1.25q-1.515625 -1.203125 -1.515625 -3.0q0 -0.390625 -0.265625 -0.625q-0.203125 -0.21875 -0.515625 -0.21875q-0.328125 0 -0.546875 0.21875q-0.234375 0.234375 -0.234375 0.609375zm6.875 6.8125l-12.15625 0q-0.75 0 -0.78125 0.703125q-0.03125 0.75 0.71875 0.75l5.34375 0l0 3.859375q0 0.359375 0.25 0.59375q0.21875 0.203125 0.53125 0.203125q0.3125 0 0.515625 -0.21875q0.265625 -0.234375 0.265625 -0.59375l0 -3.84375l5.34375 0q0.734375 0 0.734375 -0.734375q-0.03125 -0.71875 -0.765625 -0.71875z" fill-rule="nonzero"></path><path fill="#000000" d="m412.93655 99.94965q-1.859375 0 -2.953125 1.28125q-0.96875 1.140625 -0.96875 2.796875q0 1.640625 0.96875 2.796875q1.09375 1.28125 2.953125 1.28125q1.828125 0 2.90625 -1.28125q0.96875 -1.140625 0.96875 -2.796875q0 -1.65625 -0.96875 -2.796875q-1.078125 -1.28125 -2.90625 -1.28125zm0 1.453125q1.109375 0 1.734375 0.796875q0.578125 0.71875 0.578125 1.828125q0 1.109375 -0.578125 1.828125q-0.625 0.796875 -1.734375 0.796875q-1.140625 0 -1.75 -0.796875q-0.578125 -0.71875 -0.578125 -1.828125q0 -1.109375 0.5625 -1.828125q0.640625 -0.796875 1.765625 -0.796875zm7.328125 2.859375l0 -3.96875q0 -0.75 -0.796875 -0.75q-0.78125 0 -0.78125 0.75l0 8.65625q0 0.359375 0.25 0.578125q0.203125 0.21875 0.53125 0.21875q0.328125 0 0.53125 -0.203125q0.265625 -0.21875 0.265625 -0.59375l0 -3.234375l1.375 0q0.734375 0 0.734375 -0.734375q0 -0.71875 -0.734375 -0.71875l-1.375 0zm-8.71875 4.828125q0 -0.40625 -0.25 -0.640625q-0.21875 -0.234375 -0.546875 -0.234375q-0.328125 0 -0.546875 0.25q-0.234375 0.21875 -0.234375 0.625l0 2.0625q0 0.796875 0.5 1.265625q0.515625 0.484375 1.375 0.484375l8.09375 0q0.734375 0 0.734375 -0.734375q0 -0.71875 -0.734375 -0.71875l-7.96875 0q-0.3125 0 -0.375 -0.046875q-0.046875 -0.0625 -0.046875 -0.34375l0 -1.96875zm20.671875 -9.0625l-5.125 0q-0.90625 0 -1.421875 0.546875q-0.46875 0.5 -0.46875 1.296875l0 8.296875q0 0.8125 0.46875 1.34375q0.53125 0.578125 1.4375 0.578125q1.84375 0 3.78125 -0.28125q2.0 -0.296875 3.34375 -0.75q0.34375 -0.140625 0.453125 -0.40625q0.140625 -0.296875 0 -0.59375q-0.109375 -0.265625 -0.40625 -0.390625q-0.3125 -0.09375 -0.640625 0.03125q-1.21875 0.453125 -2.984375 0.6875q-1.703125 0.25 -3.515625 0.25q-0.21875 0 -0.28125 -0.09375q-0.078125 -0.125 -0.078125 -0.546875l0 -3.796875l5.171875 0q0.796875 0 0.796875 -0.734375q0 -0.71875 -0.796875 -0.71875l-5.171875 0l0 -2.875q0 -0.234375 0.0625 -0.328125q0.0625 -0.0625 0.265625 -0.0625l5.125 0q0.34375 0 0.578125 -0.21875q0.234375 -0.21875 0.234375 -0.515625q0 -0.296875 -0.234375 -0.53125q-0.25 -0.1875 -0.59375 -0.1875zm4.046875 5.671875l0 -5.390625q0 -0.359375 -0.28125 -0.59375q-0.21875 -0.15625 -0.515625 -0.15625q-0.296875 0 -0.515625 0.171875q-0.265625 0.234375 -0.265625 0.578125l0 12.1875q0 0.34375 0.25 0.5625q0.203125 0.21875 0.53125 0.21875q0.328125 0 0.53125 -0.203125q0.265625 -0.21875 0.265625 -0.578125l0 -5.375l1.40625 0q0.703125 0 0.703125 -0.71875q0 -0.703125 -0.703125 -0.703125l-1.40625 0z" fill-rule="nonzero"></path><path fill="#000000" d="m416.2178 119.02778l-5.125 0q-0.90625 0 -1.421875 0.546875q-0.46875 0.5 -0.46875 1.296875l0 8.296883q0 0.8125 0.46875 1.34375q0.53125 0.578125 1.4375 0.578125q1.84375 0 3.78125 -0.28125q2.0 -0.296875 3.34375 -0.75q0.34375 -0.140625 0.453125 -0.40625q0.140625 -0.296875 0 -0.59375q-0.109375 -0.265625 -0.40625 -0.390625q-0.3125 -0.09375 -0.640625 0.03125q-1.21875 0.453125 -2.984375 0.6875q-1.703125 0.25 -3.515625 0.25q-0.21875 0 -0.28125 -0.09375q-0.078125 -0.125 -0.078125 -0.546875l0 -3.7968826l5.171875 0q0.796875 0 0.796875 -0.734375q0 -0.71875 -0.796875 -0.71875l-5.171875 0l0 -2.875q0 -0.234375 0.0625 -0.328125q0.0625 -0.0625 0.265625 -0.0625l5.125 0q0.34375 0 0.578125 -0.21875q0.234375 -0.21875 0.234375 -0.515625q0 -0.296875 -0.234375 -0.53125q-0.25 -0.1875 -0.59375 -0.1875zm4.046875 5.671875l0 -5.390625q0 -0.359375 -0.28125 -0.59375q-0.21875 -0.15625 -0.515625 -0.15625q-0.296875 0 -0.515625 0.171875q-0.265625 0.234375 -0.265625 0.578125l0 12.187508q0 0.34375 0.25 0.5625q0.203125 0.21875 0.53125 0.21875q0.328125 0 0.53125 -0.203125q0.265625 -0.21875 0.265625 -0.578125l0 -5.3750076l1.40625 0q0.703125 0 0.703125 -0.71875q0 -0.703125 -0.703125 -0.703125l-1.40625 0zm11.09375 -6.0625q-2.859375 0 -4.3125 0.625q-1.46875 0.625 -1.46875 1.84375q0 1.203125 1.46875 1.828125q1.453125 0.640625 4.3125 0.640625q2.84375 0 4.296875 -0.640625q1.484375 -0.625 1.484375 -1.828125q0 -1.21875 -1.484375 -1.84375q-1.453125 -0.625 -4.296875 -0.625zm0 1.453125q2.3125 0 3.390625 0.328125q0.828125 0.25 0.828125 0.6875q0 0.40625 -0.828125 0.65625q-1.0625 0.34375 -3.390625 0.34375q-2.34375 0 -3.40625 -0.34375q-0.796875 -0.25 -0.796875 -0.65625q0 -0.4375 0.796875 -0.6875q1.078125 -0.328125 3.40625 -0.328125zm6.109375 4.046875l-12.171875 0q-0.765625 0 -0.796875 0.703125q-0.0625 0.75 0.71875 0.75l2.609375 0l0 0.125q0 0.28125 -0.046875 0.4375q-0.0625 0.140625 -0.234375 0.3125q-0.265625 0.25 -0.25 0.59375q0.0625 0.296875 0.28125 0.5q0.21875 0.1875 0.5 0.21875q0.34375 0.03125 0.59375 -0.234375q0.34375 -0.375 0.53125 -0.8125q0.21875 -0.5 0.21875 -1.015625l0 -0.125l4.328125 0l0 1.328125q0 0.359375 0.25 0.59375q0.21875 0.203125 0.53125 0.203125q0.328125 0 0.53125 -0.21875q0.265625 -0.234375 0.265625 -0.59375l0 -1.3125l2.171875 0q0.71875 0 0.71875 -0.734375q-0.03125 -0.71875 -0.75 -0.71875zm-2.265625 2.546875l-8.671875 0q-0.78125 0 -0.8125 0.71875q0 0.7343826 0.796875 0.7343826l8.578125 0q0.21875 0 0.265625 0.046875q0.015625 0 0.015625 0.109375l0 0.3125q0 0.015625 0 0.015625q-0.0625 0.03125 -0.25 0.03125l-7.84375 0q-0.71875 0 -1.125 0.40625q-0.40625 0.40625 -0.40625 1.0625l0 0.59375q0 0.625 0.390625 1.0q0.390625 0.390625 1.0625 0.390625l9.1875 0q0.359375 0 0.5625 -0.234375q0.1875 -0.21875 0.1875 -0.515625q-0.03125 -0.28125 -0.234375 -0.5q-0.25 -0.203125 -0.578125 -0.203125l-8.78125 0q-0.171875 0 -0.203125 -0.03125q0 0.015625 0 -0.0625l0 -0.28125q0 -0.125 0.015625 -0.15625q0.03125 -0.015625 0.203125 -0.015625l7.921875 0q0.640625 0 1.046875 -0.40625q0.4375 -0.40625 0.4375 -1.0l0 -0.65625q0 -0.6406326 -0.578125 -1.0312576q-0.5 -0.328125 -1.1875 -0.328125z" fill-rule="nonzero"></path><path fill="#cfe2f3" d="m398.0303 36.87999l114.55118 0l0 133.07086l-114.55118 0z" fill-rule="nonzero"></path><path stroke="#000000" stroke-width="2.0" stroke-linejoin="round" stroke-linecap="butt" d="m398.0303 36.87999l114.55118 0l0 133.07086l-114.55118 0z" fill-rule="nonzero"></path><path fill="#cfe2f3" d="m398.0303 67.88655l114.55118 0l0 102.078735l-114.55118 0z" fill-rule="nonzero"></path><path stroke="#000000" stroke-width="2.0" stroke-linejoin="round" stroke-linecap="butt" d="m398.0303 67.88655l114.55118 0l0 102.078735l-114.55118 0z" fill-rule="nonzero"></path><path fill="#000000" fill-opacity="0.0" d="m397.1818 37.29144l325.82675 0l0 39.181103l-325.82675 0z" fill-rule="nonzero"></path><path fill="#000000" d="m421.40054 49.992687l-10.1875 0q-0.890625 0 -1.359375 0.46875q-0.4375 0.453125 -0.4375 1.21875l0 3.9375q0 0.765625 0.484375 1.171875q0.4375 0.40625 1.203125 0.40625l10.34375 0q0.5 0 0.484375 -0.484375q0 -0.453125 -0.5 -0.453125l-10.09375 0q-0.46875 0 -0.625 -0.1875q-0.1875 -0.171875 -0.1875 -0.578125l0 -1.5l10.90625 0q0.515625 0 0.515625 -0.484375q0 -0.46875 -0.53125 -0.46875l-10.890625 0l0 -1.234375q0 -0.421875 0.203125 -0.640625q0.234375 -0.21875 0.703125 -0.21875l10.015625 0q0.25 0 0.375 -0.15625q0.125 -0.140625 0.125 -0.328125q0 -0.1875 -0.140625 -0.328125q-0.15625 -0.140625 -0.40625 -0.140625zm1.53125 9.46875l-14.46875 0q-0.53125 0 -0.515625 0.46875q0 0.453125 0.484375 0.453125l6.734375 0l0 4.203121q0 0.28125 0.140625 0.4375q0.15625 0.15625 0.359375 0.15625q0.203125 0 0.34375 -0.15625q0.171875 -0.15625 0.171875 -0.4375l0 -4.203121l6.796875 0q0.453125 0 0.453125 -0.453125q-0.015625 -0.46875 -0.5 -0.46875zm11.21875 -9.265625q0 2.359375 -1.9375 3.921875q-1.71875 1.390625 -4.0625 1.578125q-0.296875 0.015625 -0.421875 0.1875q-0.140625 0.15625 -0.109375 0.375q0.03125 0.203125 0.203125 0.328125q0.1875 0.140625 0.453125 0.109375q2.3125 -0.3125 4.125 -1.546875q1.71875 -1.15625 2.28125 -2.640625q0.578125 1.453125 2.296875 2.640625q1.796875 1.234375 4.0 1.546875q0.3125 0.03125 0.53125 -0.109375q0.1875 -0.125 0.21875 -0.328125q0.0625 -0.234375 -0.0625 -0.390625q-0.15625 -0.1875 -0.4375 -0.203125q-2.375 -0.25 -4.0625 -1.578125q-1.953125 -1.546875 -1.953125 -3.859375q0 -0.296875 -0.171875 -0.46875q-0.15625 -0.15625 -0.359375 -0.15625q-0.21875 0 -0.375 0.15625q-0.15625 0.171875 -0.15625 0.4375zm7.765625 8.484375l-14.4375 0q-0.515625 0 -0.53125 0.46875q-0.015625 0.484375 0.46875 0.484375l6.734375 0l0 4.968746q0 0.265625 0.15625 0.421875q0.15625 0.140625 0.375 0.140625q0.203125 0 0.359375 -0.15625q0.171875 -0.171875 0.171875 -0.421875l0 -4.953121l6.75 0q0.46875 0 0.46875 -0.484375q-0.015625 -0.46875 -0.515625 -0.46875zm10.515625 -8.484375l-5.484375 0q-0.515625 0 -0.5 0.46875q0 0.484375 0.515625 0.484375l5.515625 0q0.421875 0 0.671875 0.203125q0.21875 0.203125 0.21875 0.59375l0 2.171875q0 3.921875 -1.859375 6.0625q-1.703125 1.984375 -4.890625 2.328125q-0.53125 0.03125 -0.484375 0.5q0.03125 0.484375 0.546875 0.4375q3.421875 -0.21875 5.5 -2.53125q2.25 -2.5 2.25 -6.765625l0 -2.1875q0 -0.8125 -0.53125 -1.28125q-0.53125 -0.484375 -1.46875 -0.484375zm7.21875 14.390621l0 -14.437496q0 -0.25 -0.171875 -0.390625q-0.15625 -0.109375 -0.375 -0.109375q-0.25 0 -0.390625 0.109375q-0.171875 0.140625 -0.171875 0.390625l0 14.437496q0 0.25 0.171875 0.421875q0.140625 0.15625 0.390625 0.15625q0.21875 0 0.375 -0.15625q0.171875 -0.171875 0.171875 -0.421875zm17.703125 -14.734371l-10.375 0q-0.546875 0 -0.5625 0.46875q0 0.46875 0.546875 0.46875l10.078125 0q0.40625 0 0.59375 0.125q0.203125 0.125 0.203125 0.40625l0 0.4375q0 0.21875 -0.21875 0.359375q-0.21875 0.140625 -0.609375 0.140625l-9.09375 0q-0.703125 0 -1.109375 0.3125q-0.390625 0.34375 -0.390625 0.9375l0 0.84375q0 0.625 0.359375 0.9375q0.375 0.3125 1.140625 0.3125l10.71875 0q0.25 0 0.375 -0.15625q0.125 -0.140625 0.125 -0.328125q0 -0.1875 -0.140625 -0.328125q-0.15625 -0.140625 -0.40625 -0.140625l-10.390625 0q-0.390625 0 -0.546875 -0.140625q-0.125 -0.109375 -0.125 -0.328125l0 -0.515625q0 -0.21875 0.125 -0.328125q0.171875 -0.125 0.59375 -0.125l9.25 0q0.703125 0 1.046875 -0.28125q0.40625 -0.296875 0.40625 -0.921875l0 -1.03125q0 -0.53125 -0.4375 -0.84375q-0.40625 -0.28125 -1.15625 -0.28125zm-4.171875 5.9375q0 -0.421875 -0.53125 -0.421875q-0.546875 -0.03125 -0.546875 0.359375l0 1.53125l-6.625 0q-0.53125 0 -0.546875 0.4375q-0.046875 0.46875 0.453125 0.46875l14.53125 0q0.515625 0 0.515625 -0.46875q-0.015625 -0.4375 -0.546875 -0.4375l-6.703125 0l0 -1.46875zm3.9375 4.390625l-10.40625 0q-0.53125 0 -0.5 0.46875q0 0.484375 0.5 0.484375l10.34375 0q0.4375 0 0.609375 0.171875q0.171875 0.140625 0.171875 0.5l0 2.7812462q0 0.28125 0.171875 0.4375q0.140625 0.15625 0.390625 0.15625q0.21875 0 0.375 -0.15625q0.171875 -0.15625 0.171875 -0.4375l0 -2.8281212q0 -0.78125 -0.46875 -1.1875q-0.46875 -0.390625 -1.359375 -0.390625z" fill-rule="nonzero"></path><path fill="#000000" fill-opacity="0.0" d="m398.0303 69.95023l114.55118 0l0 99.59055l-114.55118 0z" fill-rule="nonzero"></path><path fill="#000000" d="m419.8428 82.341484l-8.578125 0q-0.75 0 -1.140625 0.390625q-0.375 0.375 -0.375 1.03125l0 3.3125q0 0.640625 0.40625 0.984375q0.375 0.34375 1.015625 0.34375l8.71875 0q0.421875 0 0.40625 -0.40625q0 -0.390625 -0.421875 -0.390625l-8.5 0q-0.390625 0 -0.53125 -0.15625q-0.15625 -0.140625 -0.15625 -0.484375l0 -1.265625l9.1875 0q0.4375 0 0.4375 -0.40625q0 -0.390625 -0.453125 -0.390625l-9.171875 0l0 -1.046875q0 -0.34375 0.171875 -0.53125q0.203125 -0.1875 0.59375 -0.1875l8.4375 0q0.203125 0 0.3125 -0.125q0.109375 -0.125 0.109375 -0.28125q0 -0.15625 -0.125 -0.28125q-0.125 -0.109375 -0.34375 -0.109375zm1.296875 7.96875l-12.1875 0q-0.453125 0 -0.4375 0.390625q0 0.390625 0.40625 0.390625l5.671875 0l0 3.53125q0 0.234375 0.125 0.375q0.125 0.125 0.296875 0.125q0.171875 0 0.296875 -0.125q0.140625 -0.140625 0.140625 -0.375l0 -3.53125l5.71875 0q0.390625 0 0.390625 -0.390625q-0.015625 -0.390625 -0.421875 -0.390625zm13.34375 -1.34375l0.96875 0q0.375 -0.53125 0.609375 -1.359375q0.25 -0.953125 0.25 -2.171875l0 -1.546875q0 -0.6875 -0.46875 -1.0625q-0.453125 -0.375 -1.25 -0.375l-8.609375 0q-0.421875 0 -0.421875 0.390625q0 0.40625 0.421875 0.40625l8.625 0q0.34375 0 0.546875 0.1875q0.21875 0.1875 0.21875 0.515625l0 1.578125q0 1.15625 -0.21875 1.96875q-0.21875 0.8125 -0.671875 1.46875zm2.609375 -0.15625l-12.140625 0q-0.453125 0 -0.4375 0.390625q0.015625 0.40625 0.421875 0.40625l5.65625 0l0 5.03125q0 0.21875 0.140625 0.359375q0.125 0.109375 0.3125 0.109375q0.171875 0 0.296875 -0.109375q0.15625 -0.140625 0.15625 -0.359375l0 -5.03125l5.609375 0q0.203125 0 0.328125 -0.125q0.125 -0.125 0.125 -0.28125q0 -0.15625 -0.125 -0.28125q-0.125 -0.109375 -0.34375 -0.109375zm9.484375 -6.296875q0 1.984375 -1.625 3.296875q-1.453125 1.171875 -3.421875 1.328125q-0.25 0.015625 -0.359375 0.15625q-0.109375 0.140625 -0.09375 0.3125q0.03125 0.171875 0.171875 0.28125q0.15625 0.125 0.390625 0.09375q1.9375 -0.265625 3.46875 -1.296875q1.453125 -0.984375 1.921875 -2.234375q0.484375 1.234375 1.9375 2.234375q1.515625 1.03125 3.359375 1.296875q0.265625 0.03125 0.453125 -0.09375q0.15625 -0.109375 0.1875 -0.28125q0.046875 -0.1875 -0.0625 -0.328125q-0.125 -0.15625 -0.359375 -0.171875q-2.0 -0.203125 -3.421875 -1.328125q-1.640625 -1.296875 -1.640625 -3.25q0 -0.25 -0.15625 -0.390625q-0.125 -0.125 -0.296875 -0.125q-0.1875 0 -0.3125 0.125q-0.140625 0.140625 -0.140625 0.375zm6.546875 7.140625l-12.15625 0q-0.4375 0 -0.453125 0.390625q-0.015625 0.40625 0.390625 0.40625l5.671875 0l0 4.1875q0 0.21875 0.140625 0.359375q0.125 0.109375 0.3125 0.109375q0.171875 0 0.296875 -0.125q0.15625 -0.140625 0.15625 -0.359375l0 -4.171875l5.671875 0q0.40625 0 0.40625 -0.40625q-0.015625 -0.390625 -0.4375 -0.390625z" fill-rule="nonzero"></path><path fill="#000000" d="m416.43655 101.51336l-7.078125 0q-0.4375 0 -0.4375 0.390625q0 0.40625 0.4375 0.40625l7.078125 0q0.453125 0 0.453125 -0.40625q0 -0.390625 -0.453125 -0.390625zm-6.109375 2.078125q0 1.75 0.125 4.1875q0.140625 2.515625 0.34375 4.1875l-1.859375 0.015625q-0.453125 0 -0.453125 0.390625q0 0.40625 0.453125 0.40625q2.546875 0 4.6875 -0.203125q2.328125 -0.21875 3.65625 -0.625q0.203125 -0.046875 0.296875 -0.203125q0.09375 -0.140625 0.0625 -0.296875q-0.03125 -0.171875 -0.171875 -0.25q-0.15625 -0.09375 -0.375 -0.015625q-0.296875 0.078125 -0.6875 0.171875q-0.25 0.046875 -0.765625 0.15625l-0.53125 0.109375q0.21875 -1.46875 0.34375 -3.859375q0.125 -2.171875 0.125 -4.234375q0 -0.40625 -0.4375 -0.40625q-0.4375 0 -0.4375 0.40625q0 2.0625 -0.125 4.28125q-0.125 2.390625 -0.328125 3.953125q-0.734375 0.0625 -1.3125 0.09375q-0.734375 0.0625 -1.21875 0.0625q-0.21875 -1.640625 -0.359375 -4.203125q-0.109375 -2.328125 -0.109375 -4.125q0 -0.203125 -0.15625 -0.328125q-0.125 -0.09375 -0.3125 -0.09375q-0.1875 0 -0.3125 0.09375q-0.140625 0.125 -0.140625 0.328125zm9.734375 10.03125l0 -12.15625q0 -0.203125 -0.15625 -0.328125q-0.125 -0.09375 -0.3125 -0.09375q-0.203125 0 -0.328125 0.09375q-0.140625 0.125 -0.140625 0.328125l0 12.15625q0 0.21875 0.140625 0.359375q0.125 0.125 0.328125 0.125q0.1875 0 0.3125 -0.125q0.15625 -0.140625 0.15625 -0.359375zm8.546875 -12.1875q-1.703125 0 -2.703125 1.171875q-0.890625 1.046875 -0.890625 2.578125q0 1.515625 0.890625 2.578125q1.0 1.171875 2.703125 1.171875q1.671875 0 2.65625 -1.171875q0.890625 -1.046875 0.890625 -2.578125q0 -1.53125 -0.890625 -2.578125q-0.984375 -1.171875 -2.65625 -1.171875zm0 0.796875q1.265625 0 1.984375 0.921875q0.65625 0.8125 0.65625 2.03125q0 1.21875 -0.65625 2.03125q-0.71875 0.921875 -1.984375 0.921875q-1.296875 0 -2.015625 -0.921875q-0.640625 -0.8125 -0.640625 -2.03125q0 -1.21875 0.640625 -2.03125q0.734375 -0.921875 2.015625 -0.921875zm7.0 3.515625l0 -4.296875q0 -0.421875 -0.46875 -0.421875q-0.453125 0 -0.453125 0.421875l0 8.65625q0 0.21875 0.140625 0.34375q0.125 0.125 0.3125 0.125q0.1875 0 0.3125 -0.125q0.15625 -0.125 0.15625 -0.34375l0 -3.5625l1.703125 0q0.40625 0 0.40625 -0.40625q0 -0.390625 -0.40625 -0.390625l-1.703125 0zm-8.71875 4.5q0 -0.265625 -0.15625 -0.40625q-0.125 -0.140625 -0.3125 -0.140625q-0.1875 0 -0.3125 0.140625q-0.140625 0.140625 -0.140625 0.40625l0 2.0625q0 0.65625 0.390625 1.03125q0.421875 0.390625 1.15625 0.390625l8.09375 0q0.40625 0 0.40625 -0.40625q0 -0.390625 -0.40625 -0.390625l-7.96875 0q-0.4375 0 -0.59375 -0.140625q-0.15625 -0.15625 -0.15625 -0.578125l0 -1.96875zm21.0 -8.734375l-5.125 0q-0.765625 0 -1.1875 0.4375q-0.375 0.40625 -0.375 1.078125l0 8.296875q0 0.6875 0.390625 1.125q0.421875 0.46875 1.1875 0.46875q1.8125 0 3.734375 -0.28125q1.96875 -0.28125 3.28125 -0.734375q0.203125 -0.078125 0.265625 -0.234375q0.078125 -0.15625 0 -0.3125q-0.0625 -0.15625 -0.21875 -0.21875q-0.1875 -0.0625 -0.40625 0.03125q-1.265625 0.453125 -3.0625 0.703125q-1.71875 0.25 -3.5625 0.25q-0.40625 0 -0.5625 -0.25q-0.125 -0.203125 -0.125 -0.71875l0 -4.125l5.5 0q0.46875 0 0.46875 -0.40625q0 -0.390625 -0.46875 -0.390625l-5.5 0l0 -3.203125q0 -0.34375 0.140625 -0.53125q0.171875 -0.1875 0.515625 -0.1875l5.125 0q0.21875 0 0.359375 -0.125q0.125 -0.125 0.125 -0.28125q0 -0.15625 -0.125 -0.28125q-0.140625 -0.109375 -0.375 -0.109375zm3.71875 5.671875l0 -5.71875q0 -0.203125 -0.15625 -0.328125q-0.125 -0.09375 -0.3125 -0.09375q-0.1875 0 -0.3125 0.09375q-0.140625 0.125 -0.140625 0.328125l0 12.1875q0 0.203125 0.140625 0.328125q0.125 0.125 0.3125 0.125q0.1875 0 0.3125 -0.125q0.15625 -0.125 0.15625 -0.328125l0 -5.703125l1.734375 0q0.375 0 0.375 -0.390625q0 -0.375 -0.375 -0.375l-1.734375 0z" fill-rule="nonzero"></path><path fill="#000000" d="m416.73343 120.51336l-7.09375 0q-0.4375 0 -0.4375 0.390625q-0.015625 0.40625 0.421875 0.40625l3.09375 0l0 2.546875q0 2.4375 -1.046875 4.4531326q-1.0 1.96875 -2.578125 2.78125q-0.203125 0.09375 -0.265625 0.28125q-0.046875 0.171875 0.046875 0.34375q0.078125 0.15625 0.234375 0.21875q0.171875 0.078125 0.359375 -0.015625q1.3125 -0.65625 2.359375 -2.203125q1.03125 -1.515625 1.34375 -3.1562576q0.265625 1.5937576 1.328125 3.1562576q1.0625 1.53125 2.3125 2.203125q0.234375 0.125 0.4375 0.0625q0.1875 -0.046875 0.28125 -0.21875q0.078125 -0.15625 0.03125 -0.34375q-0.046875 -0.1875 -0.25 -0.296875q-1.640625 -0.90625 -2.640625 -2.84375q-1.03125 -2.0000076 -1.03125 -4.4375076l0 -2.53125l3.09375 0q0.390625 0 0.390625 -0.40625q0 -0.390625 -0.390625 -0.390625zm2.875 5.671875l0 -5.71875q0 -0.203125 -0.15625 -0.328125q-0.125 -0.09375 -0.3125 -0.09375q-0.1875 0 -0.3125 0.09375q-0.140625 0.125 -0.140625 0.328125l0 12.187508q0 0.203125 0.140625 0.328125q0.125 0.125 0.3125 0.125q0.1875 0 0.3125 -0.125q0.15625 -0.125 0.15625 -0.328125l0 -5.7031326l1.734375 0q0.375 0 0.375 -0.390625q0 -0.375 -0.375 -0.375l-1.734375 0zm10.25 -5.953125l-3.296875 0q-0.4375 0 -0.4375 0.390625q0 0.40625 0.4375 0.40625l3.359375 0q0.171875 0 0.28125 -0.125q0.09375 -0.125 0.09375 -0.28125q-0.015625 -0.15625 -0.125 -0.28125q-0.109375 -0.109375 -0.3125 -0.109375zm0.96875 1.796875l-5.1875 0q-0.4375 0 -0.4375 0.390625q-0.015625 0.40625 0.421875 0.40625l2.125 0l0 0.5625q0 1.328125 -0.796875 2.234375q-0.6875 0.78125 -1.90625 1.15625q-0.234375 0.0625 -0.3125 0.25q-0.0625 0.15625 0 0.34375q0.078125 0.171875 0.234375 0.265625q0.171875 0.09375 0.375 0.03125q1.203125 -0.46875 1.953125 -1.140625q0.609375 -0.5625 0.921875 -1.265625q0.265625 0.671875 0.90625 1.1875q0.71875 0.5625 1.859375 0.90625q0.171875 0.046875 0.34375 -0.0625q0.140625 -0.09375 0.203125 -0.28125q0.0625 -0.1875 0 -0.34375q-0.078125 -0.171875 -0.296875 -0.21875q-1.265625 -0.34375 -1.859375 -0.984375q-0.703125 -0.75 -0.703125 -2.109375l0 -0.53125l2.15625 0q0.359375 0 0.375 -0.40625q0 -0.390625 -0.375 -0.390625zm4.75 -1.546875l0 3.453125l-2.25 0l0 -3.5q0 -0.40625 -0.46875 -0.40625q-0.453125 0 -0.453125 0.40625l0 6.21875q0 0.234375 0.140625 0.390625q0.125 0.125 0.3125 0.125q0.1875 0 0.3125 -0.125q0.15625 -0.15625 0.15625 -0.390625l0 -1.90625l2.25 0l0 1.90625q0 0.234375 0.140625 0.390625q0.125 0.125 0.3125 0.125q0.171875 0 0.296875 -0.125q0.15625 -0.15625 0.15625 -0.390625l0 -6.15625q0 -0.453125 -0.453125 -0.453125q-0.453125 0 -0.453125 0.4375zm-0.578125 8.296883l-8.953125 0q-0.46875 0 -0.46875 0.40625q0 0.40625 0.46875 0.40625l8.921875 0q0.3125 0 0.46875 0.125q0.140625 0.125 0.140625 0.390625l0 2.53125q0 0.21875 0.140625 0.359375q0.125 0.109375 0.3125 0.109375q0.171875 0 0.296875 -0.109375q0.15625 -0.140625 0.15625 -0.359375l0 -2.578125q0 -0.578125 -0.40625 -0.9375q-0.40625 -0.34375 -1.078125 -0.34375zm13.734375 -8.375008l-7.09375 0q-0.4375 0 -0.4375 0.390625q-0.015625 0.40625 0.421875 0.40625l3.09375 0l0 0.515625q0 1.640625 -1.078125 2.8125q-0.890625 0.96875 -2.5625 1.65625q-0.203125 0.078125 -0.265625 0.25q-0.046875 0.15625 0.03125 0.3125q0.09375 0.171875 0.25 0.234375q0.171875 0.078125 0.375 0.015625q1.40625 -0.546875 2.390625 -1.453125q0.953125 -0.90625 1.3125 -1.953125q0.265625 0.921875 1.34375 1.859375q1.0 0.859375 2.28125 1.40625q0.21875 0.09375 0.421875 0.03125q0.1875 -0.0625 0.28125 -0.234375q0.078125 -0.171875 0.03125 -0.34375q-0.0625 -0.171875 -0.265625 -0.25q-1.5625 -0.625 -2.46875 -1.5625q-1.15625 -1.1875 -1.15625 -2.8125l0 -0.484375l3.09375 0q0.390625 0 0.390625 -0.40625q0 -0.390625 -0.390625 -0.390625zm3.328125 6.28125l0 -6.203125q0 -0.21875 -0.15625 -0.34375q-0.125 -0.109375 -0.3125 -0.109375q-0.203125 0 -0.328125 0.125q-0.140625 0.125 -0.140625 0.34375l0 2.71875l-2.671875 0q-0.21875 0 -0.328125 0.109375q-0.109375 0.125 -0.109375 0.28125q0.015625 0.15625 0.140625 0.28125q0.140625 0.125 0.375 0.125l2.59375 0l0 2.671875q0 0.21875 0.140625 0.359375q0.125 0.125 0.328125 0.125q0.1875 0 0.3125 -0.125q0.15625 -0.140625 0.15625 -0.359375zm-0.9375 2.8906326l0 1.859375q0 0.265625 -0.171875 0.390625q-0.15625 0.109375 -0.515625 0.109375l-6.765625 0q-0.40625 0 -0.5625 -0.125q-0.140625 -0.125 -0.140625 -0.4375l0 -1.765625q0 -0.296875 0.125 -0.421875q0.15625 -0.140625 0.53125 -0.140625l6.796875 0q0.375 0 0.53125 0.109375q0.171875 0.125 0.171875 0.421875zm-0.484375 -1.328125l-7.34375 0q-0.578125 0 -0.921875 0.328125q-0.34375 0.328125 -0.34375 0.828125l0 2.046875q0 0.625 0.328125 0.9375q0.359375 0.34375 1.140625 0.34375l7.203125 0q0.625 0 0.984375 -0.296875q0.375 -0.3125 0.375 -0.90625l0 -2.1875q0 -0.5 -0.375 -0.796875q-0.390625 -0.296875 -1.046875 -0.296875z" fill-rule="nonzero"></path><path fill="#000000" d="m413.76468 148.63837l1.453125 0.171875q-0.34375 1.28125 -1.28125 1.984375q-0.921875 0.703125 -2.359375 0.703125q-1.828125 0 -2.890625 -1.125q-1.0625 -1.125 -1.0625 -3.140625q0 -2.09375 1.078125 -3.25q1.078125 -1.15625 2.796875 -1.15625q1.65625 0 2.703125 1.140625q1.0625 1.125 1.0625 3.171875q0 0.125 0 0.375l-6.1875 0q0.078125 1.375 0.765625 2.109375q0.703125 0.71875 1.734375 0.71875q0.78125 0 1.328125 -0.40625q0.546875 -0.40625 0.859375 -1.296875zm-4.609375 -2.28125l4.625 0q-0.09375 -1.046875 -0.53125 -1.5625q-0.671875 -0.8125 -1.734375 -0.8125q-0.96875 0 -1.640625 0.65625q-0.65625 0.640625 -0.71875 1.71875zm10.8984375 3.6875l0.203125 1.25q-0.59375 0.125 -1.0625 0.125q-0.765625 0 -1.1875 -0.234375q-0.421875 -0.25 -0.59375 -0.640625q-0.171875 -0.40625 -0.171875 -1.671875l0 -4.765625l-1.03125 0l0 -1.09375l1.03125 0l0 -2.0625l1.40625 -0.84375l0 2.90625l1.40625 0l0 1.09375l-1.40625 0l0 4.84375q0 0.609375 0.0625 0.78125q0.078125 0.171875 0.25 0.28125q0.171875 0.09375 0.484375 0.09375q0.234375 0 0.609375 -0.0625zm6.7890625 -1.78125l1.390625 0.1875q-0.234375 1.421875 -1.171875 2.234375q-0.921875 0.8125 -2.28125 0.8125q-1.703125 0 -2.75 -1.109375q-1.03125 -1.125 -1.03125 -3.203125q0 -1.34375 0.4375 -2.34375q0.453125 -1.015625 1.359375 -1.515625q0.921875 -0.5 1.984375 -0.5q1.359375 0 2.21875 0.6875q0.859375 0.671875 1.09375 1.9375l-1.359375 0.203125q-0.203125 -0.828125 -0.703125 -1.25q-0.484375 -0.421875 -1.1875 -0.421875q-1.0625 0 -1.734375 0.765625q-0.65625 0.75 -0.65625 2.40625q0 1.671875 0.640625 2.4375q0.640625 0.75 1.671875 0.75q0.828125 0 1.375 -0.5q0.5625 -0.515625 0.703125 -1.578125z" fill-rule="nonzero"></path><path fill="#000000" fill-opacity="0.0" d="m141.78789 58.108208l72.97638 0" fill-rule="nonzero"></path><path stroke="#000000" stroke-width="2.0" stroke-linejoin="round" stroke-linecap="butt" d="m141.78789 58.108208l72.97638 0" fill-rule="nonzero"></path><path fill="#000000" fill-opacity="0.0" d="m133.30302 36.06352l0 -13.070868" fill-rule="nonzero"></path><path stroke="#000000" stroke-width="2.0" stroke-linejoin="round" stroke-linecap="butt" d="m133.30302 36.06352l0 -13.070868" fill-rule="nonzero"></path><path fill="#000000" fill-opacity="0.0" d="m133.30302 23.0l274.89764 0" fill-rule="nonzero"></path><path stroke="#000000" stroke-width="2.0" stroke-linejoin="round" stroke-linecap="butt" d="m133.30302 23.0l274.89764 0" fill-rule="nonzero"></path><path fill="#000000" fill-opacity="0.0" d="m407.36365 23.816471l0 13.889763" fill-rule="nonzero"></path><path stroke="#000000" stroke-width="2.0" stroke-linejoin="round" stroke-linecap="butt" d="m407.36365 23.816471l0 13.889763" fill-rule="nonzero"></path><path fill="#cfe2f3" d="m187.1718 242.21895l109.44881 0l0 102.07875l-109.44881 0z" fill-rule="nonzero"></path><path stroke="#000000" stroke-width="2.0" stroke-linejoin="round" stroke-linecap="butt" d="m187.1718 242.21895l109.44881 0l0 102.07875l-109.44881 0z" fill-rule="nonzero"></path><path fill="#cfe2f3" d="m198.9217 255.28246l109.44881 0l0 102.07875l-109.44881 0z" fill-rule="nonzero"></path><path stroke="#000000" stroke-width="2.0" stroke-linejoin="round" stroke-linecap="butt" d="m198.9217 255.28246l109.44881 0l0 102.07875l-109.44881 0z" fill-rule="nonzero"></path><path fill="#cfe2f3" d="m210.67165 268.34598l109.44881 0l0 102.078735l-109.44881 0z" fill-rule="nonzero"></path><path stroke="#000000" stroke-width="2.0" stroke-linejoin="round" stroke-linecap="butt" d="m210.67165 268.34598l109.44881 0l0 102.078735l-109.44881 0z" fill-rule="nonzero"></path><path fill="#cfe2f3" d="m222.42157 281.40952l109.44882 0l0 102.078735l-109.44882 0z" fill-rule="nonzero"></path><path stroke="#000000" stroke-width="2.0" stroke-linejoin="round" stroke-linecap="butt" d="m222.42157 281.40952l109.44882 0l0 102.078735l-109.44882 0z" fill-rule="nonzero"></path><path fill="#000000" fill-opacity="0.0" d="m115.48485 169.1481l0 132.25198" fill-rule="nonzero"></path><path stroke="#000000" stroke-width="2.0" stroke-linejoin="round" stroke-linecap="butt" d="m115.48485 169.1481l0 132.25198" fill-rule="nonzero"></path><path fill="#000000" fill-opacity="0.0" d="m115.48485 301.41623l108.59842 0.8189087" fill-rule="nonzero"></path><path stroke="#000000" stroke-width="2.0" stroke-linejoin="round" stroke-linecap="butt" d="m115.48485 301.41623l108.59842 0.8189087" fill-rule="nonzero"></path><path fill="#000000" fill-opacity="0.0" d="m212.21213 293.25153l-95.874016 -0.8188782" fill-rule="nonzero"></path><path stroke="#000000" stroke-width="2.0" stroke-linejoin="round" stroke-linecap="butt" d="m212.21213 293.25153l-95.874016 -0.8188782" fill-rule="nonzero"></path><path fill="#000000" fill-opacity="0.0" d="m116.333336 283.45392l83.149605 0" fill-rule="nonzero"></path><path stroke="#000000" stroke-width="2.0" stroke-linejoin="round" stroke-linecap="butt" d="m116.333336 283.45392l83.149605 0" fill-rule="nonzero"></path><path fill="#000000" fill-opacity="0.0" d="m188.45454 272.02332l-72.97638 0" fill-rule="nonzero"></path><path stroke="#000000" stroke-width="2.0" stroke-linejoin="round" stroke-linecap="butt" d="m188.45454 272.02332l-72.97638 0" fill-rule="nonzero"></path><path fill="#000000" fill-opacity="0.0" d="m181.2336 205.25613l121.32283 0l0 13.889755l-121.32283 0z" fill-rule="nonzero"></path><path fill="#000000" d="m198.6711 213.92526l-5.671875 0q-0.515625 0 -0.5 0.46875q0 0.484375 0.515625 0.484375l5.546875 0q0.390625 0 0.609375 0.1875q0.25 0.171875 0.25 0.5625l0 0.828125q0 2.09375 -1.734375 3.265625q-1.703125 1.125 -4.921875 1.25q-0.28125 0 -0.453125 0.171875q-0.125 0.125 -0.125 0.328125q0 0.1875 0.15625 0.328125q0.171875 0.125 0.453125 0.125q3.65625 -0.171875 5.671875 -1.640625q2.015625 -1.4375 2.015625 -3.8125l0 -0.984375q0 -0.703125 -0.53125 -1.140625q-0.5 -0.421875 -1.28125 -0.421875zm6.5 4.046875l0 -3.984375q0 -0.5 -0.5625 -0.5q-0.53125 0 -0.53125 0.5l0 7.4375q0 0.25 0.171875 0.40625q0.140625 0.140625 0.359375 0.140625q0.234375 0 0.375 -0.140625q0.1875 -0.15625 0.1875 -0.40625l0 -2.5l2.015625 0q0.484375 0 0.484375 -0.484375q0 -0.46875 -0.484375 -0.46875l-2.015625 0zm-1.84375 5.546875l-9.5625 0q-0.53125 0 -0.5 0.484375q0 0.484375 0.5 0.484375l9.5625 0q0.390625 0 0.578125 0.15625q0.171875 0.15625 0.171875 0.515625l0 3.296875q0 0.265625 0.171875 0.421875q0.140625 0.140625 0.359375 0.140625q0.234375 0 0.375 -0.140625q0.1875 -0.15625 0.1875 -0.421875l0 -3.296875q0 -0.78125 -0.46875 -1.21875q-0.484375 -0.421875 -1.375 -0.421875zm21.421875 -9.578125l-11.96875 0q-0.515625 0 -0.515625 0.46875q-0.03125 0.484375 0.5 0.484375l5.4375 0q-0.125 1.265625 -1.875 2.25q-1.734375 0.953125 -4.140625 1.203125q-0.3125 0.015625 -0.46875 0.1875q-0.125 0.15625 -0.078125 0.359375q0.046875 0.234375 0.203125 0.359375q0.21875 0.140625 0.515625 0.109375q2.296875 -0.265625 4.09375 -1.15625q1.71875 -0.84375 2.28125 -1.90625q0.578125 1.0625 2.296875 1.90625q1.828125 0.890625 4.140625 1.15625q0.265625 0.03125 0.453125 -0.109375q0.15625 -0.125 0.203125 -0.359375q0.03125 -0.203125 -0.078125 -0.359375q-0.125 -0.171875 -0.390625 -0.1875q-2.53125 -0.265625 -4.25 -1.234375q-1.75 -0.953125 -1.84375 -2.21875l5.484375 0q0.453125 0 0.453125 -0.484375q0 -0.46875 -0.453125 -0.46875zm1.1875 7.421875l-6.6875 0l0 -2.03125q0 -0.484375 -0.53125 -0.46875q-0.546875 0 -0.546875 0.5l0 2.0l-6.640625 0q-0.25 0 -0.40625 0.140625q-0.125 0.140625 -0.140625 0.328125q-0.03125 0.1875 0.09375 0.328125q0.109375 0.15625 0.3125 0.15625l14.5625 0q0.234375 0 0.390625 -0.15625q0.140625 -0.140625 0.140625 -0.328125q0 -0.1875 -0.140625 -0.328125q-0.15625 -0.140625 -0.40625 -0.140625zm-7.203125 2.25q-3.296875 0 -4.96875 0.78125q-1.5 0.703125 -1.5 1.953125q0 1.21875 1.5 1.921875q1.671875 0.78125 4.96875 0.78125q3.28125 0 4.953125 -0.78125q1.515625 -0.703125 1.515625 -1.921875q0 -1.265625 -1.515625 -1.953125q-1.65625 -0.78125 -4.953125 -0.78125zm0 0.921875q2.796875 0 4.15625 0.484375q1.25 0.453125 1.25 1.328125q0 0.828125 -1.25 1.25q-1.359375 0.5 -4.15625 0.5q-2.8125 0 -4.171875 -0.5q-1.234375 -0.421875 -1.234375 -1.25q0 -0.875 1.234375 -1.328125q1.359375 -0.484375 4.171875 -0.484375z" fill-rule="nonzero"></path><path fill="#000000" d="m242.4169 214.03464q0 1.484375 -1.859375 2.734375q-1.828125 1.234375 -4.171875 1.328125q-0.296875 0 -0.421875 0.171875q-0.140625 0.125 -0.109375 0.328125q0.03125 0.1875 0.203125 0.328125q0.1875 0.125 0.453125 0.125q2.375 -0.25 4.1875 -1.265625q1.640625 -0.9375 2.21875 -2.171875q0.609375 1.25 2.234375 2.15625q1.8125 1.015625 4.296875 1.265625q0.21875 0 0.390625 -0.140625q0.140625 -0.140625 0.171875 -0.328125q0.015625 -0.203125 -0.109375 -0.328125q-0.15625 -0.171875 -0.4375 -0.171875q-2.296875 -0.078125 -4.15625 -1.296875q-1.875 -1.25 -1.875 -2.734375q0 -0.53125 -0.515625 -0.53125q-0.5 0.015625 -0.5 0.53125zm7.75 7.03125l-14.453125 0q-0.53125 0 -0.546875 0.46875q-0.046875 0.484375 0.453125 0.484375l6.765625 0l0 3.015625q0 0.265625 0.15625 0.421875q0.15625 0.125 0.375 0.125q0.203125 0 0.359375 -0.15625q0.171875 -0.15625 0.171875 -0.4375l0 -2.96875l6.765625 0q0.453125 0 0.453125 -0.484375q-0.015625 -0.46875 -0.5 -0.46875zm-12.40625 3.796875q0 -0.34375 -0.1875 -0.53125q-0.140625 -0.15625 -0.375 -0.15625q-0.234375 0 -0.390625 0.15625q-0.15625 0.1875 -0.15625 0.53125l0 2.078125q0 0.71875 0.421875 1.15625q0.421875 0.46875 1.171875 0.46875l10.671875 0q0.46875 0 0.46875 -0.484375q0 -0.46875 -0.46875 -0.46875l-10.265625 0q-0.515625 0 -0.703125 -0.15625q-0.1875 -0.1875 -0.1875 -0.6875l0 -1.90625zm22.09375 -10.90625q-2.296875 0 -3.65625 0.953125q-1.1875 0.875 -1.1875 2.140625q0 1.21875 1.1875 2.09375q1.359375 0.96875 3.65625 0.96875q2.28125 0 3.640625 -0.96875q1.21875 -0.875 1.21875 -2.09375q0 -1.265625 -1.21875 -2.140625q-1.359375 -0.953125 -3.640625 -0.953125zm0 0.953125q1.765625 0 2.828125 0.65625q0.9375 0.609375 0.9375 1.484375q0 0.828125 -0.9375 1.4375q-1.0625 0.671875 -2.828125 0.671875q-1.78125 0 -2.8125 -0.671875q-0.9375 -0.609375 -0.9375 -1.4375q0 -0.890625 0.9375 -1.484375q1.03125 -0.65625 2.8125 -0.65625zm-0.484375 7.75l0 1.984375q0 1.03125 -0.15625 1.734375q-0.15625 0.703125 -0.46875 1.15625q-0.171875 0.21875 -0.109375 0.4375q0.046875 0.203125 0.234375 0.3125q0.203125 0.09375 0.40625 0.046875q0.25 -0.0625 0.390625 -0.296875q0.359375 -0.5625 0.5625 -1.3125q0.234375 -0.890625 0.234375 -1.984375l0 -2.125q1.6875 -0.109375 2.671875 -0.171875q1.578125 -0.109375 2.40625 -0.171875q0.5 -0.078125 0.4375 -0.546875q-0.03125 -0.453125 -0.59375 -0.390625q-1.5 0.1875 -5.015625 0.328125q-3.390625 0.171875 -5.890625 0.171875q-0.484375 0 -0.5 0.46875q-0.015625 0.453125 0.4375 0.453125q1.15625 0 2.53125 -0.03125q1.390625 -0.015625 2.421875 -0.0625zm8.515625 5.78125l0 -14.453125q0 -0.25 -0.171875 -0.375q-0.15625 -0.125 -0.375 -0.125q-0.25 0 -0.390625 0.125q-0.171875 0.140625 -0.171875 0.390625l0 14.4375q0 0.25 0.171875 0.421875q0.140625 0.15625 0.390625 0.15625q0.21875 0 0.375 -0.15625q0.171875 -0.171875 0.171875 -0.421875z" fill-rule="nonzero"></path><path fill="#cfe2f3" d="m478.9281 222.63011l145.07086 0l0 166.5512l-145.07086 0z" fill-rule="nonzero"></path><path stroke="#000000" stroke-width="2.0" stroke-linejoin="round" stroke-linecap="butt" d="m478.9281 222.63011l145.07086 0l0 166.5512l-145.07086 0z" fill-rule="nonzero"></path><path fill="#000000" fill-opacity="0.0" d="m480.6251 222.63011l142.55118 0l0 34.267715l-142.55118 0z" fill-rule="nonzero"></path><path fill="#000000" fill-opacity="0.0" d="m478.9281 222.63011l144.22046 0l0 34.267715l-144.22046 0z" fill-rule="nonzero"></path><path fill="#000000" d="m498.44373 235.53448l-6.078125 0q-0.90625 0 -1.40625 0.53125q-0.453125 0.484375 -0.453125 1.28125l0 9.84375q0 0.8125 0.46875 1.34375q0.5 0.546875 1.40625 0.546875q2.15625 0 4.4375 -0.328125q2.328125 -0.328125 3.890625 -0.875q0.25 -0.09375 0.3125 -0.28125q0.09375 -0.1875 0 -0.359375q-0.0625 -0.1875 -0.25 -0.265625q-0.21875 -0.078125 -0.484375 0.03125q-1.5 0.546875 -3.640625 0.84375q-2.03125 0.296875 -4.234375 0.296875q-0.46875 0 -0.65625 -0.296875q-0.15625 -0.25 -0.15625 -0.859375l0 -4.890625l6.53125 0q0.5625 0 0.5625 -0.484375q0 -0.46875 -0.5625 -0.46875l-6.53125 0l0 -3.796875q0 -0.421875 0.171875 -0.640625q0.203125 -0.21875 0.609375 -0.21875l6.09375 0q0.25 0 0.421875 -0.15625q0.140625 -0.140625 0.140625 -0.328125q0 -0.1875 -0.140625 -0.328125q-0.171875 -0.140625 -0.453125 -0.140625zm4.421875 6.734375l0 -6.78125q0 -0.25 -0.1875 -0.390625q-0.140625 -0.109375 -0.375 -0.109375q-0.21875 0 -0.359375 0.109375q-0.171875 0.140625 -0.171875 0.390625l0 14.46875q0 0.25 0.171875 0.390625q0.140625 0.15625 0.359375 0.15625q0.234375 0 0.375 -0.15625q0.1875 -0.140625 0.1875 -0.390625l0 -6.765625l2.0625 0q0.4375 0 0.4375 -0.46875q0 -0.453125 -0.4375 -0.453125l-2.0625 0zm15.578125 -6.734375l-8.421875 0q-0.515625 0 -0.515625 0.46875q-0.015625 0.484375 0.5 0.484375l3.671875 0l0 3.03125q0 2.890625 -1.234375 5.28125q-1.1875 2.34375 -3.0625 3.296875q-0.25 0.109375 -0.3125 0.34375q-0.0625 0.203125 0.046875 0.40625q0.09375 0.1875 0.28125 0.25q0.203125 0.09375 0.421875 -0.015625q1.5625 -0.78125 2.8125 -2.609375q1.21875 -1.796875 1.59375 -3.75q0.3125 1.890625 1.578125 3.75q1.25 1.8125 2.734375 2.609375q0.28125 0.15625 0.53125 0.078125q0.21875 -0.0625 0.328125 -0.265625q0.09375 -0.171875 0.03125 -0.40625q-0.046875 -0.21875 -0.296875 -0.34375q-1.9375 -1.078125 -3.125 -3.375q-1.234375 -2.375 -1.234375 -5.28125l0 -3.0l3.671875 0q0.46875 0 0.46875 -0.484375q0 -0.46875 -0.46875 -0.46875zm3.421875 6.734375l0 -6.78125q0 -0.25 -0.1875 -0.390625q-0.140625 -0.109375 -0.375 -0.109375q-0.21875 0 -0.359375 0.109375q-0.171875 0.140625 -0.171875 0.390625l0 14.46875q0 0.25 0.171875 0.390625q0.140625 0.15625 0.359375 0.15625q0.234375 0 0.375 -0.15625q0.1875 -0.140625 0.1875 -0.390625l0 -6.765625l2.0625 0q0.4375 0 0.4375 -0.46875q0 -0.453125 -0.4375 -0.453125l-2.0625 0z" fill-rule="nonzero"></path><path fill="#000000" d="m535.09576 249.55011l-3.75 -9.859375l1.765625 0l2.125 5.90625q0.34375 0.953125 0.625 1.984375q0.21875 -0.78125 0.625 -1.875l2.1875 -6.015625l1.71875 0l-3.734375 9.859375l-1.5625 0zm5.921875 -2.9375l1.65625 -0.265625q0.140625 1.0 0.765625 1.53125q0.640625 0.515625 1.78125 0.515625q1.15625 0 1.703125 -0.46875q0.5625 -0.46875 0.5625 -1.09375q0 -0.5625 -0.484375 -0.890625q-0.34375 -0.21875 -1.703125 -0.5625q-1.84375 -0.46875 -2.5625 -0.796875q-0.703125 -0.34375 -1.078125 -0.9375q-0.359375 -0.609375 -0.359375 -1.328125q0 -0.65625 0.296875 -1.21875q0.3125 -0.5625 0.828125 -0.9375q0.390625 -0.28125 1.0625 -0.484375q0.671875 -0.203125 1.4375 -0.203125q1.171875 0 2.046875 0.34375q0.875 0.328125 1.28125 0.90625q0.421875 0.5625 0.578125 1.515625l-1.625 0.21875q-0.109375 -0.75 -0.65625 -1.171875q-0.53125 -0.4375 -1.5 -0.4375q-1.15625 0 -1.640625 0.390625q-0.484375 0.375 -0.484375 0.875q0 0.328125 0.203125 0.59375q0.203125 0.265625 0.640625 0.4375q0.25 0.09375 1.46875 0.4375q1.765625 0.46875 2.46875 0.765625q0.703125 0.296875 1.09375 0.875q0.40625 0.578125 0.40625 1.4375q0 0.828125 -0.484375 1.578125q-0.484375 0.734375 -1.40625 1.140625q-0.921875 0.390625 -2.078125 0.390625q-1.921875 0 -2.9375 -0.796875q-1.0 -0.796875 -1.28125 -2.359375z" fill-rule="nonzero"></path><path fill="#000000" d="m570.16974 235.33136l-10.1875 0q-0.890625 0 -1.359375 0.46875q-0.4375 0.453125 -0.4375 1.21875l0 3.9375q0 0.765625 0.484375 1.171875q0.4375 0.40625 1.203125 0.40625l10.34375 0q0.5 0 0.484375 -0.484375q0 -0.453125 -0.5 -0.453125l-10.09375 0q-0.46875 0 -0.625 -0.1875q-0.1875 -0.171875 -0.1875 -0.578125l0 -1.5l10.90625 0q0.515625 0 0.515625 -0.484375q0 -0.46875 -0.53125 -0.46875l-10.890625 0l0 -1.234375q0 -0.421875 0.203125 -0.640625q0.234375 -0.21875 0.703125 -0.21875l10.015625 0q0.25 0 0.375 -0.15625q0.125 -0.140625 0.125 -0.328125q0 -0.1875 -0.140625 -0.328125q-0.15625 -0.140625 -0.40625 -0.140625zm1.53125 9.46875l-14.46875 0q-0.53125 0 -0.515625 0.46875q0 0.453125 0.484375 0.453125l6.734375 0l0 4.203125q0 0.28125 0.140625 0.4375q0.15625 0.15625 0.359375 0.15625q0.203125 0 0.34375 -0.15625q0.171875 -0.15625 0.171875 -0.4375l0 -4.203125l6.796875 0q0.453125 0 0.453125 -0.453125q-0.015625 -0.46875 -0.5 -0.46875zm11.21875 -9.265625q0 2.359375 -1.9375 3.921875q-1.71875 1.390625 -4.0625 1.578125q-0.296875 0.015625 -0.421875 0.1875q-0.140625 0.15625 -0.109375 0.375q0.03125 0.203125 0.203125 0.328125q0.1875 0.140625 0.453125 0.109375q2.3125 -0.3125 4.125 -1.546875q1.71875 -1.15625 2.28125 -2.640625q0.578125 1.453125 2.296875 2.640625q1.796875 1.234375 4.0 1.546875q0.3125 0.03125 0.53125 -0.109375q0.1875 -0.125 0.21875 -0.328125q0.0625 -0.234375 -0.0625 -0.390625q-0.15625 -0.1875 -0.4375 -0.203125q-2.375 -0.25 -4.0625 -1.578125q-1.953125 -1.546875 -1.953125 -3.859375q0 -0.296875 -0.171875 -0.46875q-0.15625 -0.15625 -0.359375 -0.15625q-0.21875 0 -0.375 0.15625q-0.15625 0.171875 -0.15625 0.4375zm7.765625 8.484375l-14.4375 0q-0.515625 0 -0.53125 0.46875q-0.015625 0.484375 0.46875 0.484375l6.734375 0l0 4.96875q0 0.265625 0.15625 0.421875q0.15625 0.140625 0.375 0.140625q0.203125 0 0.359375 -0.15625q0.171875 -0.171875 0.171875 -0.421875l0 -4.953125l6.75 0q0.46875 0 0.46875 -0.484375q-0.015625 -0.46875 -0.515625 -0.46875z" fill-rule="nonzero"></path><path fill="#cfe2f3" d="m478.9281 256.92184l145.07086 0l0 133.07086l-145.07086 0z" fill-rule="nonzero"></path><path stroke="#000000" stroke-width="2.0" stroke-linejoin="round" stroke-linecap="butt" d="m478.9281 256.92184l145.07086 0l0 133.07086l-145.07086 0z" fill-rule="nonzero"></path><path fill="#000000" fill-opacity="0.0" d="m490.8069 263.45358l107.74805 0l0 107.37009l-107.74805 0z" fill-rule="nonzero"></path><path fill="#000000" d="m501.52563 290.3736l0 -1.90625l1.90625 0l0 1.90625l-1.90625 0z" fill-rule="nonzero"></path><path fill="#000000" d="m501.52563 312.3736l0 -1.90625l1.90625 0l0 1.90625l-1.90625 0z" fill-rule="nonzero"></path><path fill="#000000" d="m501.52563 334.3736l0 -1.90625l1.90625 0l0 1.90625l-1.90625 0z" fill-rule="nonzero"></path><path fill="#000000" d="m501.52563 356.3736l0 -1.90625l1.90625 0l0 1.90625l-1.90625 0z" fill-rule="nonzero"></path><path fill="#000000" d="m501.52563 378.3736l0 -1.90625l1.90625 0l0 1.90625l-1.90625 0z" fill-rule="nonzero"></path><path fill="#cfe2f3" d="m415.29175 295.89923l61.543304 0l0 -0.20471191l0.40945435 0.40945435l-0.40945435 0.40942383l0 -0.20471191l-61.543304 0z" fill-rule="nonzero"></path><path stroke="#000000" stroke-width="2.0" stroke-linejoin="round" stroke-linecap="butt" d="m415.29175 295.89923l61.543304 0l0 -0.20471191l0.40945435 0.40945435l-0.40945435 0.40942383l0 -0.20471191l-61.543304 0z" fill-rule="nonzero"></path><path fill="#000000" fill-opacity="0.0" d="m415.29175 296.10397l-39.149597 0.22045898" fill-rule="nonzero"></path><path stroke="#000000" stroke-width="2.0" stroke-linejoin="round" stroke-linecap="butt" d="m415.29175 296.10397l-39.149597 0.22045898" fill-rule="nonzero"></path><path fill="#000000" fill-opacity="0.0" d="m331.0057 118.517586l41.7323 0" fill-rule="nonzero"></path><path stroke="#000000" stroke-width="2.0" stroke-linejoin="round" stroke-linecap="butt" d="m331.0057 118.517586l41.7323 0" fill-rule="nonzero"></path><path fill="#000000" fill-opacity="0.0" d="m372.7349 118.51706l0 178.64566" fill-rule="nonzero"></path><path stroke="#000000" stroke-width="2.0" stroke-linejoin="round" stroke-linecap="butt" d="m372.7349 118.51706l0 178.64566" fill-rule="nonzero"></path><path fill="#000000" fill-opacity="0.0" d="m376.98163 296.32022l-4.2519836 0.8503723" fill-rule="nonzero"></path><path stroke="#000000" stroke-width="2.0" stroke-linejoin="round" stroke-linecap="butt" d="m376.98163 296.32022l-4.2519836 0.8503723" fill-rule="nonzero"></path><path fill="#000000" fill-opacity="0.0" d="m427.9239 171.50919l0 97.63779" fill-rule="nonzero"></path><path stroke="#000000" stroke-width="2.0" stroke-linejoin="round" stroke-linecap="butt" d="m427.9239 171.50919l0 97.63779" fill-rule="nonzero"></path><path fill="#000000" fill-opacity="0.0" d="m427.9239 269.15222l50.960632 0" fill-rule="nonzero"></path><path stroke="#000000" stroke-width="2.0" stroke-linejoin="round" stroke-linecap="butt" d="m427.9239 269.15222l50.960632 0" fill-rule="nonzero"></path></g></svg>

